<svg xmlns="http://www.w3.org/2000/svg" version="1.1" xmlns:xlink="http://www.w3.org/1999/xlink" width="35" height="30" x="0" y="0" viewBox="0 0 512 512" style="enable-background:new 0 0 512 512" xml:space="preserve" class=""><g><path d="M256 0C114.61 0 0 114.61 0 256s114.61 256 256 256c141.38 0 256-114.61 256-256S397.39 0 256 0zm159.81 415.81C373.12 458.5 316.37 482 256 482s-117.12-23.51-159.81-66.19C53.5 373.12 30 316.37 30 256S53.51 138.88 96.19 96.19C138.88 53.5 195.63 30 256 30s117.12 23.51 159.81 66.19C458.5 138.88 482 195.63 482 256s-23.51 117.12-66.19 159.81zM401 235.2v-28.95h-35.1V124.3h-63.32v81.95H255.9l-46.49-81.95h-63.5v81.95h-34.92v28.95h34.92v30.75h-34.92v28.95h34.92v92.81h63.5V294.9h40.34l52.83 92.81h63.32V294.9H401v-28.95h-35.1V235.2zm-191.58 30.75V235.2h6.51l17.37 30.75zm93.17 0h-12.66l-17.55-30.75h30.21z" data-name="11" fill="#69c16b" opacity="1" data-original="#69c16b" class=""></path></g></svg>