<svg xmlns="http://www.w3.org/2000/svg" version="1.1" xmlns:xlink="http://www.w3.org/1999/xlink" width="4" height="4" x="0" y="0" viewBox="0 0 32 32" style="enable-background:new 0 0 512 512" xml:space="preserve" class=""><g><path d="M19 17.56a4.8 4.8 0 0 0 .81-2.67 4.89 4.89 0 1 0-4.89 4.89 4.8 4.8 0 0 0 2.64-.78l2.73 2.74a1 1 0 0 0 1.42 0 1 1 0 0 0 0-1.42Zm-7-2.67a2.89 2.89 0 1 1 2.89 2.89A2.9 2.9 0 0 1 12 14.89ZM26.3 7.8l-3.93-4.72A3 3 0 0 0 20.06 2H8a3 3 0 0 0-3 3v22a3 3 0 0 0 3 3h16a3 3 0 0 0 3-3V9.72a3 3 0 0 0-.7-1.92Zm-2.44.2H22a1 1 0 0 1-1-1V4.56ZM25 27a1 1 0 0 1-1 1H8a1 1 0 0 1-1-1V5a1 1 0 0 1 1-1h11v3a3 3 0 0 0 3 3h3Z" data-name="Layer 15" fill="#69c16b" opacity="1" data-original="#69c16b" class=""></path></g></svg>