<svg xmlns="http://www.w3.org/2000/svg" version="1.1" xmlns:xlink="http://www.w3.org/1999/xlink" width="512" height="512" x="0" y="0" viewBox="0 0 128 128" style="enable-background:new 0 0 512 512" xml:space="preserve" class="hovered-paths"><g><path fill="#59bfc1" d="M100 83.4a2.128 2.128 0 0 1-2.04 2.11L5.29 90.47h-.12a1.992 1.992 0 0 1-2.02-1.86c-.07-1.53-1.27-21.46-1.05-23.15a9.927 9.927 0 0 1 5.34-7.16 31.2 31.2 0 0 1 2.92-1.39l6.29-19.26c1.47-4.6 2.34-6.84 5.96-7.26 0 0 53.03-2.89 53.12-2.89 2.63 0 4.31 3.35 6.09 7.41.79 1.79 7.77 17.68 7.77 17.68l.86.27c3.05.97 6.58 2.59 7.79 5.81 1 2.64 1.69 22.89 1.76 24.73z" opacity="1" data-original="#59bfc1" class="hovered-path"></path><path fill="#18665c30" d="M81.82 65.98a7.06 7.06 0 0 0-6.72 7.33 6.963 6.963 0 0 0 7 6.59h.01c.13 0 .26 0 .39-.01a7.073 7.073 0 0 0 6.72-7.33 6.971 6.971 0 0 0-7.4-6.58zm.57 11.92h-.28a5.068 5.068 0 0 1-3.47-1.36 4.83 4.83 0 0 1-1.54-3.32 5.055 5.055 0 0 1 4.82-5.24 2.713 2.713 0 0 1 .28-.01 4.975 4.975 0 0 1 5.02 4.69 5.069 5.069 0 0 1-4.83 5.24zM19.19 69.33a7.073 7.073 0 0 0-6.72 7.33 6.966 6.966 0 0 0 7.01 6.59c.13 0 .26 0 .39-.01a7.06 7.06 0 0 0 6.72-7.33 6.99 6.99 0 0 0-7.4-6.58zm.58 11.92a4.955 4.955 0 0 1-5.3-4.68 5.063 5.063 0 0 1 4.83-5.24 2.634 2.634 0 0 1 .28-.01 4.973 4.973 0 0 1 5.01 4.69 5.067 5.067 0 0 1-4.82 5.24z" opacity="1" data-original="#18665c30"></path><path fill="#1c2a3530" d="m108.58 101.196 4.16 1.92a1 1 0 0 0 .839-1.816l-1.629-.752c.156-.04.324-.084.51-.134a1 1 0 0 0 .734-1.068c-.138-1.336-.6-4.825-.651-5.222q1.644 1.559 3.277 3.118a1 1 0 0 0 1.354.026c.498-.442.992-.903 1.48-1.37-.146 1.17-.303 2.365-.471 3.629a1 1 0 0 0 .934 1.13q2.633.15 5.257.28c-.254.207-2.44 1.963-3.251 2.65a1 1 0 0 0-.13 1.392c.788.974 2.608 3.077 2.687 3.168-.154.018-2.142.264-3.277.356a1 1 0 0 0 .08 1.997q.04 0 .082-.003c1.169-.095 4.301-.482 5.202-.57a1 1 0 0 0 .668-1.64c-.487-.577-2.68-3.108-3.262-3.806.557-.46 3.585-2.892 4.48-3.663a1 1 0 0 0-.609-1.757q-3.364-.15-6.737-.34c.247-1.877.47-3.625.658-5.403a1 1 0 0 0-1.693-.82l-.628.617c-.693.68-1.402 1.377-2.116 2.039q-2.3-2.193-4.617-4.38a1 1 0 0 0-1.681.828c.133 1.304.763 6.058.881 7.096l-.388.096c-.552.136-1.08.266-2.001.532a1 1 0 0 0-.141 1.87z" opacity="1" data-original="#1c2a3530"></path><path fill="#f98776" d="m94.82 114.98-.09-.12a3.525 3.525 0 0 1-.21-.32.054.054 0 0 1-.03-.04 5.102 5.102 0 0 1-.3-.5c-.07-.12-.13-.24-.19-.36-.05-.1-.1-.19-.15-.29a9.084 9.084 0 0 1-.02-7.63v-.01c.05-.12.11-.23.17-.35a9.23 9.23 0 0 1 1.03-1.62c0-.01 0-.01.01-.02-.65-1.07-2.43-3.01-6.79-2.97-6 .06-27.81 0-27.81 0s-4.25.06-4.75 1.75l-13.13-7.31a2.644 2.644 0 0 0-3.22.51L32.5 103l-5.93 7.12-1.38.38-13.78.25s-3.1 1.72-2.13 4.75 1.34 2.62 1.34 2.62h81.13a7.35 7.35 0 0 0 3.3-2.83 3.55 3.55 0 0 1-.23-.31zm-40.05-4.48H36.06l5.54-6.76z" opacity="1" data-original="#f98776"></path><path fill="#8c4a4430" d="M76 110.5a1 1 0 0 0 0 2h12a1 1 0 1 0 0-2z" opacity="1" data-original="#8c4a4430"></path><path fill="#1c2a3530" d="M78.61 22.421a1 1 0 0 0 1.31-.531l4.236-10a1 1 0 1 0-1.842-.78l-4.235 10a1 1 0 0 0 .53 1.311zM85.541 27.993a1 1 0 0 0 1.364.377l10.588-6a1 1 0 0 0-.986-1.74l-10.589 6a1 1 0 0 0-.377 1.363zM82.613 24.283a1 1 0 0 0 1.406-.16l6.353-8a1 1 0 0 0-1.567-1.245l-6.353 8a1.001 1.001 0 0 0 .161 1.405z" opacity="1" data-original="#1c2a3530"></path><path fill="#eef6ff" d="M87.22 70.66a5.069 5.069 0 0 1-4.83 5.24h-.28a5.068 5.068 0 0 1-3.47-1.36 4.83 4.83 0 0 1-1.54-3.32 5.055 5.055 0 0 1 4.82-5.24 2.713 2.713 0 0 1 .28-.01 4.975 4.975 0 0 1 5.02 4.69zM24.59 74.01a5.067 5.067 0 0 1-4.82 5.24 4.955 4.955 0 0 1-5.3-4.68 5.063 5.063 0 0 1 4.83-5.24 2.634 2.634 0 0 1 .28-.01 4.973 4.973 0 0 1 5.01 4.69z" opacity="1" data-original="#eef6ff"></path><path fill="#91bcbc30" d="M99.962 83.4a1.515 1.515 0 0 1-.06.52c-.19-5.15-.82-20.94-1.7-23.25-1.21-3.22-4.74-4.84-7.79-5.81l-.86-.27s-6.98-15.89-7.77-17.68c-1.78-4.06-3.46-7.41-6.09-7.41-.09 0-53.12 2.89-53.12 2.89-3.62.42-4.49 2.66-5.96 7.26l-6.29 19.26a31.2 31.2 0 0 0-2.92 1.39 9.927 9.927 0 0 0-5.34 7.16c0 .03-.01.06-.01.1-.02-1.08-.03-1.83.01-2.1a9.927 9.927 0 0 1 5.34-7.16 31.2 31.2 0 0 1 2.92-1.39l6.29-19.26c1.47-4.6 2.34-6.84 5.96-7.26 0 0 14.1-.77 27.77-1.52l1.14-.06c.83-.04 1.66-.09 2.48-.14 11.46-.62 21.67-1.17 21.73-1.17 2.63 0 4.31 3.35 6.09 7.41.79 1.79 7.77 17.68 7.77 17.68l.86.27c3.05.97 6.58 2.59 7.79 5.81 1 2.64 1.69 22.89 1.76 24.73z" opacity="1" data-original="#91bcbc30"></path><path fill="#d68751" d="M89.18 91.44a4 4 0 0 1-3.76 4.2l-3.67.19a1.476 1.476 0 0 1-.21.01 4.03 4.03 0 0 1-4.02-3.79l-.2-3.43 11.66-.63zM26.56 94.79a4 4 0 0 1-3.76 4.2l-3.67.19a1.62 1.62 0 0 1-.22.01 4.038 4.038 0 0 1-4.02-3.79l-.19-3.43 11.66-.63z" opacity="1" data-original="#d68751"></path><g fill="#2d4356"><path d="M81.82 63.98a7.06 7.06 0 0 0-6.72 7.33 6.963 6.963 0 0 0 7 6.59h.01c.13 0 .26 0 .39-.01a7.073 7.073 0 0 0 6.72-7.33 6.971 6.971 0 0 0-7.4-6.58zm.57 11.92h-.28a5.068 5.068 0 0 1-3.47-1.36 4.83 4.83 0 0 1-1.54-3.32 5.055 5.055 0 0 1 4.82-5.24 2.713 2.713 0 0 1 .28-.01 4.975 4.975 0 0 1 5.02 4.69 5.069 5.069 0 0 1-4.83 5.24zM19.513 77.277l.17-.005a3.024 3.024 0 0 0 2.868-3.144 2.993 2.993 0 0 0-3.006-2.83l-.163.003a3.021 3.021 0 0 0-2.87 3.143 2.988 2.988 0 0 0 3.001 2.833zm.032-3.98a.995.995 0 0 1 1.009.93 1.021 1.021 0 0 1-.981 1.049h-.06a.99.99 0 0 1-1.003-.93 1.03 1.03 0 0 1 1.035-1.049z" fill="#2d4356" opacity="1" data-original="#2d4356" class=""></path><path d="m82.14 73.927.166-.004a3.022 3.022 0 0 0 2.87-3.142 2.99 2.99 0 0 0-3.003-2.832l-.165.004a3.02 3.02 0 0 0-2.87 3.141 2.986 2.986 0 0 0 3.001 2.833zm.033-3.978a.993.993 0 0 1 1.006.93 1.019 1.019 0 0 1-.98 1.047l-.06.001a.99.99 0 0 1-1.004-.93 1.03 1.03 0 0 1 1.038-1.048zM19.19 67.33a7.073 7.073 0 0 0-6.72 7.33 6.966 6.966 0 0 0 7.01 6.59c.13 0 .26 0 .39-.01a7.06 7.06 0 0 0 6.72-7.33 6.99 6.99 0 0 0-7.4-6.58zm.58 11.92a4.955 4.955 0 0 1-5.3-4.68 5.063 5.063 0 0 1 4.83-5.24 2.634 2.634 0 0 1 .28-.01 4.973 4.973 0 0 1 5.01 4.69 5.067 5.067 0 0 1-4.82 5.24z" fill="#2d4356" opacity="1" data-original="#2d4356" class=""></path></g><path fill="#ffffff" d="M77.08 49.48 21.7 51.96l3.4-13.12a.945.945 0 0 1 .67-.54l45.83-2.46h.01a.964.964 0 0 1 .69.46z" opacity="1" data-original="#ffffff"></path><path fill="#d68751" d="M69.61 74.58a1.965 1.965 0 0 1-.5 1.43 1.93 1.93 0 0 1-1.37.66l-33.43 1.79h-.1a2.047 2.047 0 0 1-2.02-1.9l-.33-5.9a1.92 1.92 0 0 1 .5-1.44 2.01 2.01 0 0 1 1.37-.66l33.43-1.78a.34.34 0 0 1 .1-.01 2.045 2.045 0 0 1 2.01 1.9z" opacity="1" data-original="#d68751"></path><path fill="#2d4356" d="m60.786 42.71-12.497-2.24a1 1 0 1 0-.353 1.97l12.497 2.238a1 1 0 1 0 .353-1.969zM49.878 45.835 37.382 43.6a1 1 0 0 0-.353 1.969l12.497 2.235a1 1 0 0 0 .352-1.969z" opacity="1" data-original="#2d4356" class=""></path><path fill="#91969b40" d="m60.786 44.71-12.497-2.24a1 1 0 1 0-.353 1.97l12.497 2.238a1 1 0 1 0 .353-1.969z" opacity="1" data-original="#91969b40"></path><path fill="#2d4356" d="M78.61 20.421a1 1 0 0 0 1.31-.531l4.236-10a1 1 0 1 0-1.842-.78l-4.235 10a1 1 0 0 0 .53 1.311zM85.541 25.993a1 1 0 0 0 1.364.377l10.588-6a1 1 0 0 0-.986-1.74l-10.589 6a1 1 0 0 0-.377 1.363zM82.613 22.283a1 1 0 0 0 1.406-.16l6.353-8a1 1 0 0 0-1.567-1.245l-6.353 8a1.001 1.001 0 0 0 .161 1.405zM104 101.5c-4.97 0-9 3.58-9 8s4.03 8 9 8 9-3.58 9-8-4.03-8-9-8zm0 14c-3.86 0-7-2.69-7-6s3.14-6 7-6 7 2.69 7 6-3.14 6-7 6z" opacity="1" data-original="#2d4356" class=""></path><ellipse cx="104" cy="109.5" fill="#eef6ff" rx="7" ry="6" opacity="1" data-original="#eef6ff"></ellipse><path fill="#2d4356" d="m55.43 109.07-13.69-6.47a.999.999 0 0 0-1.21.28l-6.32 8a1.002 1.002 0 0 0 .79 1.62h20a1.003 1.003 0 0 0 1-1v-1.52a1.007 1.007 0 0 0-.57-.91zm-18.37 1.43 4.54-5.76 12.17 5.76zM76 108.5a1 1 0 0 0 0 2h12a1 1 0 1 0 0-2z" opacity="1" data-original="#2d4356" class=""></path><path fill="#8c4a4430" d="M93.85 113.35c.05.1.1.19.15.29v.71a3.064 3.064 0 0 1-2.97 3.15l-78.29-.02a2.755 2.755 0 0 1-2.57-1.91 3 3 0 0 1-.17-1c0-.11.01-.21.02-.32a.91.91 0 0 1 .03-.23c.01-.07.03-.15.05-.23a1.875 1.875 0 0 1 .07-.22 2.88 2.88 0 0 0 .59 1 2.63 2.63 0 0 0 1.98.91l78.29.02a3.001 3.001 0 0 0 2.82-2.15z" opacity="1" data-original="#8c4a4430"></path><path fill="#f7c6c130" d="M94 104.78v.58c-.06.12-.12.23-.17.35a3.001 3.001 0 0 0-2.8-2.08H60.87a7.29 7.29 0 0 0-4.53 1.59l-.53.42-13.62-7.77a2.922 2.922 0 0 0-1.81-.33 3.13 3.13 0 0 0-1.69 1.04c-.87 1.03-12.39 14.72-12.39 14.72l-.3.36H12.74a2.63 2.63 0 0 0-1.98.91 2.79 2.79 0 0 0-.59 1c-.11-.31-.92-.762-.92-1.112 0-.11 1.172-2.901 2.208-3.041-.4-.597 13.612-.542 13.612-.542s11.12-13.553 11.99-14.583a15.48 15.48 0 0 1 3.52-1.434 5.553 5.553 0 0 1 1.795.309L55.69 102.5a9.903 9.903 0 0 1 4.57-1.84c.2-.02 30.77-.03 30.77-.03.1 0 1.537.54 1.637.56 1.5.16 1.333 1.96 1.333 3.59z" opacity="1" data-original="#f7c6c130" class=""></path><path fill="#2d4356" d="M26 111.66h-.93c9.49-11.28 11.62-13.81 12.15-14.42A4.703 4.703 0 0 1 40 95.58a3.674 3.674 0 0 1 .58-.07l-.2.03a3.13 3.13 0 0 0-1.69 1.04c-.87 1.03-12.39 14.72-12.39 14.72zM91.33 101.65a4.858 4.858 0 0 1 3.7 2.09 9.23 9.23 0 0 0-1.03 1.62v-.58a3.084 3.084 0 0 0-2.67-3.13zM108.58 99.196l4.16 1.92a1 1 0 0 0 .839-1.816l-1.629-.752c.156-.04.324-.084.51-.134a1 1 0 0 0 .734-1.068c-.138-1.336-.6-4.825-.651-5.222q1.644 1.559 3.277 3.118a1 1 0 0 0 1.354.026c.498-.442.992-.903 1.48-1.37-.146 1.17-.303 2.365-.471 3.629a1 1 0 0 0 .934 1.13q2.633.15 5.257.28c-.254.207-2.44 1.963-3.251 2.65a1 1 0 0 0-.13 1.392c.788.974 2.608 3.077 2.687 3.168-.154.018-2.142.264-3.277.356a1 1 0 0 0 .08 1.997q.04 0 .082-.003c1.169-.095 4.301-.482 5.202-.57a1 1 0 0 0 .668-1.64c-.487-.577-2.68-3.108-3.262-3.806.557-.46 3.585-2.892 4.48-3.663a1 1 0 0 0-.609-1.757q-3.364-.15-6.737-.34c.247-1.877.47-3.625.658-5.403a1 1 0 0 0-1.693-.82l-.628.617c-.693.68-1.402 1.377-2.116 2.039q-2.3-2.193-4.617-4.38a1 1 0 0 0-1.681.828c.133 1.304.763 6.058.881 7.096l-.388.096c-.552.136-1.08.266-2.001.532a1 1 0 0 0-.141 1.87z" opacity="1" data-original="#2d4356" class=""></path><path fill="#72492d30" d="M26.559 94.79c.02.32.584.839.524 1.149a3.678 3.678 0 0 1-.708 1.936 5.694 5.694 0 0 1-2.75 1.695c-.13.02-5.068.357-5.208.347a5.537 5.537 0 0 1-4.375-4.417V94l.657-2.03.19 1.43a4.038 4.038 0 0 0 4.02 3.79c.07 0 3.89-.2 3.89-.2a4.012 4.012 0 0 0 3.7-3.25zM89.812 91.563c.02.32-.346.604-.406.914-.13.71.115 2.036-.375 2.586-.62.7-2.027.797-2.937.937-.13.02-4.933.354-5.063.344a5.025 5.025 0 0 1-4.125-4.25l-.469-1.25-.118-2.224.12-.01.08 1.44a4.03 4.03 0 0 0 4.02 3.79c.07 0 4.88-.2 4.88-.2a4.012 4.012 0 0 0 3.7-3.25z" opacity="1" data-original="#72492d30"></path><path fill="#18665c30" d="M99.939 81.93a2.17 2.17 0 0 1-1.98 1.58l-92.67 4.96h-.12a1.992 1.992 0 0 1-2.02-1.86v2a1.967 1.967 0 0 0 1.62 1.82l70.56-3.71 12.39-.66 1.26-.07 8.98-.48a2.17 2.17 0 0 0 1.98-1.58v-.01a1.515 1.515 0 0 0 .06-.52l-.06-1.47z" opacity="1" data-original="#18665c30"></path><path fill="#91969b40" d="M87.22 70.66a5.071 5.071 0 0 1-4.33 5.19c-.13.02-.26.03-.39.04h-.01c-.13.01-.25.01-.38.01h-.01c-.17 0-.34-.01-.5-.02a5.128 5.128 0 0 1-2.96-1.34 4.83 4.83 0 0 1-1.54-3.32 4.7 4.7 0 0 1 .1-1.25 4.856 4.856 0 0 0 1.44 2.57 5.068 5.068 0 0 0 3.47 1.36h.28a5.107 5.107 0 0 0 4.73-4 3.856 3.856 0 0 1 .1.76zM24.59 74.01a5.07 5.07 0 0 1-4.32 5.19c-.13.02-.27.03-.4.04s-.26.01-.39.01q-.33 0-.66-.03c-.12-.01-.24-.03-.36-.05a4.961 4.961 0 0 1-3.99-4.6 5.155 5.155 0 0 1 .1-1.25 4.965 4.965 0 0 0 5.2 3.93 5.137 5.137 0 0 0 4.72-3.97 3.566 3.566 0 0 1 .1.73z" opacity="1" data-original="#91969b40"></path><path fill="#fff" d="M72.3 38.3a.964.964 0 0 0-.69-.46h-.01L25.77 40.3a.945.945 0 0 0-.67.54l-2.88 9.1 2.405-11.002c.05-.22.926-1.24 1.156-1.25l16.594-1.125 8.969-.469 20.375-.531h.343a1.172 1.172 0 0 1 .188 0 .985.985 0 0 1 .531.531L76.37 47.51z" opacity=".6"></path><path fill="#676868" d="m76.37 47.51-25.69 1.153a.992.992 0 0 0-.802-.828L37.382 45.6a1 1 0 0 0-.353 1.969l7.63 1.364L22.22 49.94l-.845 2.31 56.281-2.31z" opacity=".3"></path><path fill="#2d4356" d="m79.21 49.47-5.03-13.85a2.898 2.898 0 0 0-2.57-1.78c-.04 0-.07.01-.11.01L25.66 36.3a2.926 2.926 0 0 0-2.5 2.04l-3.58 13.81a1.382 1.382 0 0 0 1.4 1.84h.1l56.81-2.55a1.39 1.39 0 0 0 1.32-1.97zM21.7 51.96l3.4-13.12a.945.945 0 0 1 .67-.54l45.83-2.46h.01a.964.964 0 0 1 .69.46l4.78 13.18z"></path><path fill="#72492d" d="M70.438 74.225a6.14 6.14 0 0 1 0 1.213 2.138 2.138 0 0 1-.376.874 4.673 4.673 0 0 1-2.25.813L34.25 79.261c-1.05 0-2.336-1.524-2.396-2.573l.076-4.708-.07-1.32a1.893 1.893 0 0 1 .07-.67l.26 4.57a2.047 2.047 0 0 0 2.02 1.9l33.53-1.79a1.93 1.93 0 0 0 1.37-.66 1.894 1.894 0 0 0 .42-.79z" opacity=".3"></path><path fill="#e5d0c3" d="M69.383 70.628a2.117 2.117 0 0 0-2.123-1.858.34.34 0 0 0-.1.01l-33.43 1.78a2.01 2.01 0 0 0-1.37.66 1.923 1.923 0 0 0-.43.76l-.805-1.045a2.344 2.344 0 0 1 .5-1.615c.35-.38 1.365-1.603 1.875-1.633l14.25-.917 19.688-.8c.03-.01.845.342.875.342a1.974 1.974 0 0 1 1.75 2.063z" opacity=".3"></path><path fill="#fff" d="M111 109.5a4.716 4.716 0 0 1-.1 1c-.56-2.84-3.44-5-6.9-5s-6.34 2.16-6.89 5a4.146 4.146 0 0 1-.11-1c0-3.1 2.76-5.66 6.29-5.97a8.253 8.253 0 0 1 1.42 0c3.53.31 6.29 2.87 6.29 5.97z" opacity=".6"></path><path fill="#2d4356" d="M71.27 68.56a4.028 4.028 0 0 0-4.01-3.79c-.07 0-.14.01-.21.01l-33.43 1.79a3.984 3.984 0 0 0-3.76 4.2l.34 5.91a4.027 4.027 0 0 0 4.01 3.78h.21l33.43-1.79a3.993 3.993 0 0 0 3.76-4.21zm-2.16 7.45a1.93 1.93 0 0 1-1.37.66l-33.43 1.79h-.1a2.047 2.047 0 0 1-2.02-1.9l-.33-5.9a1.92 1.92 0 0 1 .5-1.44 2.01 2.01 0 0 1 1.37-.66l33.43-1.78a.34.34 0 0 1 .1-.01 2.045 2.045 0 0 1 2.01 1.9l.34 5.91a1.965 1.965 0 0 1-.5 1.43z"></path><path fill="#2d4356" d="M99.74 57.14a12.522 12.522 0 0 0-6.62-5.44c-.67-.27-1.35-.52-2.07-.75-.49-1.11-5.73-13.05-7.4-16.85-1.7-3.87-3.83-8.6-7.92-8.6-.14 0-53.29 2.89-53.29 2.89-5.43.61-6.43 4.75-7.97 9.48-1.28 3.95-5.34 16.4-5.72 17.56-.69.3-1.35.63-1.98.97A11.983 11.983 0 0 0 .05 67.98c.06 1.38.18 2.79.27 4.23l.83 16.5a3.998 3.998 0 0 0 4.02 3.76c.08 0 7.53-.4 7.53-.4l.2 3.44a6.047 6.047 0 0 0 6.01 5.68c.11 0 4-.21 4-.21a5.979 5.979 0 0 0 5.64-6.31l-.19-3.43 46.97-2.52.19 3.44a6.056 6.056 0 0 0 6.02 5.68c.1 0 3.99-.21 3.99-.21a5.98 5.98 0 0 0 5.65-6.31l-.2-3.43 7.09-.38a4.129 4.129 0 0 0 3.93-4.19c-.28-7.06-.72-23.26-2.26-26.18zM25.55 97.66a3.973 3.973 0 0 1-2.75 1.33l-3.67.19a1.62 1.62 0 0 1-.22.01 4.038 4.038 0 0 1-4.02-3.79l-.19-3.43 11.66-.63.2 3.45a3.934 3.934 0 0 1-1.01 2.87zm62.62-3.35a3.954 3.954 0 0 1-2.75 1.33l-3.67.19a1.476 1.476 0 0 1-.21.01 4.03 4.03 0 0 1-4.02-3.79l-.2-3.43 11.66-.63.2 3.45a3.935 3.935 0 0 1-1.01 2.87zm9.79-8.8L5.29 90.47h-.12a1.992 1.992 0 0 1-2.02-1.86c-.07-1.53-1.27-21.46-1.05-23.15a9.927 9.927 0 0 1 5.34-7.16 31.2 31.2 0 0 1 2.92-1.39l6.29-19.26c1.47-4.6 2.34-6.84 5.96-7.26 0 0 53.03-2.89 53.12-2.89 2.63 0 4.31 3.35 6.09 7.41.79 1.79 7.77 17.68 7.77 17.68l.86.27c3.05.97 6.58 2.59 7.79 5.81 1 2.64 1.69 22.89 1.76 24.73a2.128 2.128 0 0 1-2.04 2.11z"></path><path fill="#2d4356" d="M128 118.5a1.003 1.003 0 0 1-1 1H1a1 1 0 1 1 0-2h7.96a4.963 4.963 0 0 1-.85-1.95c0-.02-.01-.03-.01-.05a4.081 4.081 0 0 1-.1-.93 4.903 4.903 0 0 1 .11-1.02v-.01a4.786 4.786 0 0 1 4.28-3.86h.01c.11-.01.22-.02.34-.02h12.33c9.49-11.28 11.62-13.81 12.15-14.42A4.703 4.703 0 0 1 40 93.58a5.034 5.034 0 0 1 .56-.07h.02a2.172 2.172 0 0 1 .25-.01 4.686 4.686 0 0 1 2.29.6l12.53 7.15a9.184 9.184 0 0 1 4.61-1.59c.2-.02.41-.03.61-.03h30.16a1.517 1.517 0 0 1 .3.02 4.858 4.858 0 0 1 3.7 2.09 5.389 5.389 0 0 1 .64 1.24c-.23.25-.44.5-.64.76a9.23 9.23 0 0 0-1.03 1.62v-.58a3.084 3.084 0 0 0-2.67-3.13 1.517 1.517 0 0 0-.3-.02H60.87c-.2 0-.41.01-.61.03a7.303 7.303 0 0 0-3.92 1.56l-.53.42-13.62-7.77a3.376 3.376 0 0 0-1.36-.37 2.172 2.172 0 0 0-.25.01l-.2.03a3.13 3.13 0 0 0-1.69 1.04c-.87 1.03-12.39 14.72-12.39 14.72l-.3.36H12.74c-.12 0-.23.01-.34.02a2.782 2.782 0 0 0-2.23 1.87 3.118 3.118 0 0 0-.17 1.02 3 3 0 0 0 .17 1 2.755 2.755 0 0 0 2.57 1.91l78.29.02a3.064 3.064 0 0 0 2.97-3.15v-.71a8.55 8.55 0 0 0 1.07 1.66.95.95 0 0 0 .15.2 6.172 6.172 0 0 0 .48.54 4.955 4.955 0 0 1-.63 1.26 1.428 1.428 0 0 1-.14.2H127a1.003 1.003 0 0 1 1 1z"></path></g></svg>