<svg xmlns="http://www.w3.org/2000/svg" version="1.1" xmlns:xlink="http://www.w3.org/1999/xlink" width="512" height="512" x="0" y="0" viewBox="0 0 64 64" style="enable-background:new 0 0 512 512" xml:space="preserve"><g><path fill="#ffffff" d="M48 22v15H26.5l-4-7H2l2-16.5 8 8.5h15l4-4h12z" opacity="1" data-original="#ffffff"></path><path fill="#acbdc5" d="M7 12H0v16c0 4.4 3.6 8 8 8h3.2l2-4h7.7l7.8 11.9c1.7 2.5 4.5 4.1 7.5 4.1H50l6-2 7-10-6-10c-2.5-1-4.8-2-8-2h-5v11.2c-2.5.5-5.2.8-8 .8-4.6 0-8.6-1.6-10.2-3.8L23.1 28H16c-6.6 0-12-1.8-12-4v-8h1l6 8h16.8l4-4H38v-4h-7.8l-4 4H13z" opacity="1" data-original="#acbdc5"></path><path fill="#597380" d="M44 35.2c7.1-1.5 12-4.8 12-8.7v-.3c3 2.2 5 5.7 5 9.8v3H48c-2.1 0-3.9-1.7-4-3.8z" opacity="1" data-original="#597380"></path><g fill-rule="evenodd" clip-rule="evenodd"><path fill="#ff6c58" d="M32 28v-4h4v4h4v4h-4v4h-4v-4h-4v-4z" opacity="1" data-original="#ff6c58"></path><path fill="#314a52" d="M12 8h52v4H40v4h3.8l4 4h.3c7.8 0 14.5 5.6 15.7 13.3.1.3.1.7.1 1v4.1c0 2.9-1.6 5.6-4.3 6.9l-3.2 1.6c-1.4.7-2.9 1.1-4.5 1.1h.1v4h1.5c1.1 0 2.1-.4 2.8-1.2l.8-.8 2.8 2.8-.8.8c-1.5 1.5-3.5 2.3-5.7 2.3H28v-4h8v-4h4v4h8v-8h4.1c.9 0 1.9-.2 2.7-.6l3.2-1.6c1.3-.6 2-1.9 2-3.3V34c-1-5.8-6-10-11.8-10h-2l-4-4H36v-8H12z" opacity="1" data-original="#314a52"></path></g></g></svg>