<svg xmlns="http://www.w3.org/2000/svg" version="1.1" xmlns:xlink="http://www.w3.org/1999/xlink" width="512" height="512" x="0" y="0" viewBox="0 0 256 256" style="enable-background:new 0 0 512 512" xml:space="preserve" class=""><g><path fill="#fcdd86" d="M35.388 128.514c-.619.1-1.249.166-1.896.166-2.651 0-5.091-.88-7.067-2.349-.88 4.299-.966 10.748 2.39 19.138 3.809 9.524-10.547 17.44-9.279 30.72l14.331-3.618a24.9 24.9 0 0 0 4.918-1.808l7.028-3.465a7.903 7.903 0 0 0 4.408-7.088v-8.62c-8.33-4.541-14.165-13.13-14.833-23.076z" opacity="1" data-original="#fcdd86" class=""></path><path fill="#fc657e" d="M103.151 187.369c-5.686.915-10.698-2.922-11.701-8.177-10.441 18.322-21.038 9.757-25.553 4.539a2.233 2.233 0 0 1-.544-1.434h-3.222a2.233 2.233 0 0 1-.544 1.434c-4.97 5.744-17.307 15.549-28.696-10.914l-19.347 4.884a11.655 11.655 0 0 0-8.792 10.655L2.505 250.08a3.24 3.24 0 0 0 3.235 3.42h17.997c1.21 0 2.191-.981 2.191-2.191v-38.583l3.178 10.18a68.998 68.998 0 0 1 3.135 20.562v7.84c0 1.21.981 2.191 2.191 2.191h43.453l.955-17.426a9.69 9.69 0 0 1 7.309-8.858l11.841-2.98c.661-2.278 1.196-3.88 3.565-11.51v10.612l3.662-.922 5.681-2.801c.24-.203 5.79-2 5.79-8.13v-3.813c-7.578-3.808-12.941-11.427-13.537-20.302z" opacity="1" data-original="#fc657e"></path><path fill="#edf4fc" d="M92.56 172.275c-3.163-.947-4.681-1.994-9.233-4.161-3.676 4.305-9.411 9.738-16.296 11.874-1.62.503-2.244 2.46-1.134 3.743 4.515 5.219 15.112 13.783 25.553-4.539a10.178 10.178 0 0 1 1.11-6.917zM60.453 179.988c-6.885-2.135-12.62-7.569-16.296-11.874l-5.371 2.648a24.877 24.877 0 0 1-4.918 1.808l-.977.247c11.389 26.463 23.726 16.658 28.696 10.914 1.109-1.283.486-3.241-1.134-3.743z" opacity="1" data-original="#edf4fc" class=""></path><path fill="#f9d0b4" d="M81.67 167.297a7.903 7.903 0 0 1-4.408-7.088v-8.62c-4.027 2.195-8.635 3.444-13.521 3.444s-9.494-1.249-13.52-3.444v8.62a7.903 7.903 0 0 1-4.408 7.088l-1.657.817c3.676 4.305 9.411 9.738 16.296 11.874a2.363 2.363 0 0 1 1.678 2.309h3.222a2.362 2.362 0 0 1 1.678-2.309c6.885-2.135 12.62-7.569 16.296-11.874z" opacity="1" data-original="#f9d0b4" class=""></path><path d="M101.93 210.255a2.494 2.494 0 0 0-2.763 1.73c-.912 2.938-1.552 4.981-2.032 6.514-.669 2.136-1.03 3.287-1.38 4.475a2.5 2.5 0 0 0 4.539 1.999 2.5 2.5 0 0 0 3.761-2.159v-10.087a2.5 2.5 0 0 0-2.125-2.472zM77.884 251H34.741v-7.531a71.425 71.425 0 0 0-3.249-21.308l-3.178-10.18a2.493 2.493 0 0 0-2.763-1.727 2.5 2.5 0 0 0-2.123 2.472V251H5.741a.738.738 0 0 1-.538-.231c-.082-.087-.217-.272-.199-.598l2.244-61.677a9.115 9.115 0 0 1 6.908-8.369l19.347-4.884a2.5 2.5 0 1 0-1.224-4.848l-19.345 4.883c-6.041 1.52-10.332 6.72-10.681 12.988L.009 249.941a5.763 5.763 0 0 0 1.561 4.263A5.763 5.763 0 0 0 5.741 256h17.997a4.696 4.696 0 0 0 4.691-4.69v-20.991a66.393 66.393 0 0 1 1.313 13.15v7.841a4.695 4.695 0 0 0 4.69 4.69h43.453a2.5 2.5 0 1 0-.001-5z" fill="#000000" opacity="1" data-original="#000000" class=""></path><path fill="#fcdd86" d="M101.057 126.33a11.8 11.8 0 0 1-7.067 2.349 11.85 11.85 0 0 1-1.896-.166c-.667 9.946-6.503 18.535-14.833 23.075v8.62a7.903 7.903 0 0 0 4.408 7.088l7.028 3.465a24.823 24.823 0 0 0 3.862 1.512 10.311 10.311 0 0 1 2.558-3.018v-8.927a32.733 32.733 0 0 1 3.545-14.847l.005-.014c3.356-8.389 3.27-14.838 2.39-19.137z" opacity="1" data-original="#fcdd86" class=""></path><path fill="#f9d0b4" d="M93.991 104.944c-.621 0-1.229.052-1.824.145v21.519c0 .641-.029 1.275-.072 1.906.619.1 1.249.166 1.896.166 6.554 0 11.868-5.313 11.868-11.868 0-6.554-5.314-11.868-11.868-11.868z" opacity="1" data-original="#f9d0b4" class=""></path><path fill="#f9d0b4" d="M90.418 101.478c-2.876-.667-6.369-2.333-10.372-5.97a1.887 1.887 0 0 0-2.709.152c-4.329 5.053-19.68 20.383-42.021 14.02v16.928c0 15.634 12.791 28.425 28.425 28.425s28.425-12.791 28.425-28.425v-22.965c.001-1.044-.73-1.929-1.748-2.165z" opacity="1" data-original="#f9d0b4" class=""></path><path fill="#f9d0b4" d="M35.316 126.608V109.68a46.193 46.193 0 0 1-6.012-2.183 3.617 3.617 0 0 0-3.931.675 11.804 11.804 0 0 0-3.749 8.64c0 6.554 5.313 11.868 11.868 11.868.647 0 1.277-.066 1.896-.166a28.644 28.644 0 0 1-.072-1.906z" opacity="1" data-original="#f9d0b4" class=""></path><path fill="#fcdd86" d="M63.742 62.829c-21.259 0-38.653 17.394-38.653 38.653v6.985c.097-.097.185-.201.285-.295a3.615 3.615 0 0 1 3.931-.675 46.193 46.193 0 0 0 6.012 2.183c22.341 6.364 37.692-8.967 42.021-14.02a1.886 1.886 0 0 1 2.709-.152c4.003 3.637 7.496 5.303 10.372 5.97 1.017.236 1.748 1.121 1.748 2.165v1.446a11.83 11.83 0 0 1 10.228 3.344v-6.952c0-21.258-17.394-38.652-38.653-38.652z" opacity="1" data-original="#fcdd86" class=""></path><path d="M93.991 102.444c-.444 0-.882.022-1.315.063a2.5 2.5 0 0 0-2.258 2.721c.128 1.374 1.344 2.368 2.721 2.258.281-.026.564-.041.852-.041 5.166 0 9.368 4.202 9.368 9.368 0 5.165-4.202 9.367-9.368 9.367-.298 0-.592-.019-.881-.05a2.5 2.5 0 1 0-.539 4.971c.484.053.962.079 1.42.079 7.922 0 14.368-6.445 14.368-14.367-.001-7.923-6.446-14.369-14.368-14.369zM74.013 134.088a2.5 2.5 0 0 0-3.522.31c-1.387 1.655-3.755 2.643-6.336 2.643s-4.949-.987-6.336-2.643a2.5 2.5 0 0 0-3.832 3.212c2.325 2.773 6.126 4.43 10.168 4.43s7.843-1.656 10.168-4.43a2.5 2.5 0 0 0-.31-3.522z" fill="#000000" opacity="1" data-original="#000000" class=""></path><path d="M90.982 99.042c-2.964-.687-6.078-2.498-9.256-5.386a4.453 4.453 0 0 0-3.245-1.141 4.332 4.332 0 0 0-3.042 1.518c-3.954 4.615-18.483 19.212-39.438 13.242a2.497 2.497 0 0 0-3.185 2.404v16.928c0 17.053 13.873 30.926 30.925 30.926s30.925-13.873 30.925-30.926v-22.964c.001-2.205-1.513-4.097-3.684-4.601zm-1.315 27.565c0 14.296-11.63 25.926-25.925 25.926s-25.925-11.63-25.925-25.926v-13.742c21.415 4.409 36.254-9.724 41.003-15.1 3.607 3.179 7.253 5.23 10.847 6.103z" fill="#000000" opacity="1" data-original="#000000" class=""></path><path d="M28.294 109.783a48.976 48.976 0 0 0 6.338 2.301 2.5 2.5 0 0 0 1.369-4.809 43.828 43.828 0 0 1-5.687-2.066 6.094 6.094 0 0 0-6.65 1.14 14.397 14.397 0 0 0-4.539 10.463c0 7.923 6.445 14.368 14.368 14.368.402 0 .797-.021 1.189-.057a2.5 2.5 0 0 0 2.258-2.72 2.494 2.494 0 0 0-2.72-2.259c-.24.022-.482.035-.728.035-5.166 0-9.368-4.202-9.368-9.368a9.258 9.258 0 0 1 2.959-6.816 1.113 1.113 0 0 1 1.211-.212z" fill="#000000" opacity="1" data-original="#000000" class=""></path><path d="M63.742 60.329c-22.692 0-41.153 18.461-41.153 41.153v6.393a2.5 2.5 0 1 0 5 0v-6.393c0-19.935 16.218-36.153 36.153-36.153s36.153 16.219 36.153 36.153v6.226a2.5 2.5 0 1 0 5 0v-6.226c0-22.692-18.461-41.153-41.153-41.153zM103.635 126.497a2.496 2.496 0 0 0-2.9-2.022 2.5 2.5 0 0 0-2.023 2.899c.907 5.093.089 11.029-2.366 17.166l-.04.107a2.5 2.5 0 0 0 4.678 1.764l.018-.048c2.831-7.092 3.717-13.776 2.633-19.866zM31.137 144.539c-2.457-6.141-3.274-12.078-2.365-17.172a2.499 2.499 0 1 0-4.921-.879c-1.089 6.101-.2 12.799 2.644 19.908 1.381 3.453-.451 6.737-3.555 11.811-2.992 4.892-6.384 10.436-5.945 17.546a2.5 2.5 0 0 0 4.99-.308c-.342-5.537 2.486-10.158 5.22-14.628 3.105-5.075 6.315-10.322 3.932-16.278zM94.876 171.336a2.502 2.502 0 0 0-1.599-1.455 22.587 22.587 0 0 1-3.475-1.36l-5.371-2.648a2.498 2.498 0 0 0-3.006.618c-3.4 3.981-8.787 9.141-15.135 11.11a4.885 4.885 0 0 0-3.269 3.325 4.762 4.762 0 0 0 .984 4.44c3.018 3.487 7.742 7.486 13.535 7.486.405 0 .816-.02 1.231-.06 5.485-.538 10.481-4.697 14.85-12.362a2.498 2.498 0 0 0 .284-1.707 7.656 7.656 0 0 1 .837-5.23c.37-.661.419-1.455.134-2.157zm-6.029 7.36c-3.389 5.697-6.94 8.766-10.563 9.12-4.3.43-8.239-3.168-10.308-5.505 6.607-2.113 12.146-6.938 15.958-11.11l3.658 1.805c.54.266 1.093.515 1.657.746a12.57 12.57 0 0 0-.402 4.944z" fill="#000000" opacity="1" data-original="#000000" class=""></path><path d="M64.461 180.926a4.884 4.884 0 0 0-3.268-3.325c-6.35-1.97-11.736-7.129-15.136-11.11a2.5 2.5 0 0 0-3.006-.618l-5.371 2.648a22.391 22.391 0 0 1-4.425 1.626l-.977.247a2.502 2.502 0 0 0-1.683 3.412c4.959 11.522 10.823 17.883 17.429 18.904.613.095 1.23.142 1.85.142 4.616 0 9.381-2.605 13.604-7.485a4.769 4.769 0 0 0 .983-4.441zm-15.673 6.843c-4.281-.662-8.545-5.252-12.414-13.325a27.308 27.308 0 0 0 3.517-1.438l3.657-1.804c3.811 4.172 9.349 8.996 15.958 11.11-2.154 2.435-6.25 6.141-10.718 5.457zM84.433 165.872l-1.658-.817a5.368 5.368 0 0 1-3.013-4.846v-7.771a2.5 2.5 0 1 0-5 0v7.771c0 3.991 2.224 7.566 5.802 9.33l1.657.817a2.501 2.501 0 0 0 2.212-4.484z" fill="#000000" opacity="1" data-original="#000000" class=""></path><path d="M65.176 179.797h-2.869a2.5 2.5 0 1 0 0 5h2.869a2.5 2.5 0 1 0 0-5zM50.221 150a2.5 2.5 0 0 0-2.5 2.5v7.709a5.367 5.367 0 0 1-3.014 4.846l-1.657.817a2.501 2.501 0 0 0 2.212 4.485l1.656-.817a10.337 10.337 0 0 0 5.803-9.33v-7.71a2.5 2.5 0 0 0-2.5-2.5z" fill="#000000" opacity="1" data-original="#000000" class=""></path><path fill="#f9c1a8" d="M219.478 99.936a1.617 1.617 0 0 0-1.558-1.586c-12.534-.367-19.139-5.335-21.676-7.823a1.625 1.625 0 0 0-2.415.152c-11.02 13.859-27.277 11.903-32.743 10.759-.993-.208-1.946.541-1.947 1.556v24.291c0 16.595 13.577 30.172 30.172 30.172s30.172-13.577 30.172-30.172v-26.877a36.942 36.942 0 0 0-.005-.472z" opacity="1" data-original="#f9c1a8"></path><path fill="#414344" d="M212.921 67.932c-3.215 0-6.221.908-8.804 2.458-3.017-5.036-8.514-8.436-14.78-8.436h-8.85c-17.129 0-31.144 14.015-31.144 31.144v13.955a12.534 12.534 0 0 1 9.796-2.608v-1.45c.001-1.015.954-1.763 1.947-1.556 5.466 1.144 21.723 3.1 32.743-10.759a1.625 1.625 0 0 1 2.415-.152c2.538 2.488 9.142 7.455 21.676 7.823.855.025 1.541.73 1.558 1.586.003.157.005.314.005.472v4.036a12.543 12.543 0 0 1 10.673 3.381V85.167c0-9.479-7.756-17.235-17.235-17.235z" opacity="1" data-original="#414344" class=""></path><path fill="#f9c1a8" d="M221.419 104.29c-.659 0-1.305.055-1.936.154v22.842c0 .68-.031 1.354-.076 2.023.657.106 1.326.176 2.012.176 6.957 0 12.597-5.64 12.597-12.597 0-6.958-5.64-12.598-12.597-12.598zM159.138 127.285v-22.842a12.612 12.612 0 0 0-1.936-.154c-6.957 0-12.597 5.64-12.597 12.597s5.64 12.597 12.597 12.597c.687 0 1.355-.07 2.012-.176a30.031 30.031 0 0 1-.076-2.022z" opacity="1" data-original="#f9c1a8"></path><path fill="#70d6f9" d="M250.159 189.158a11.906 11.906 0 0 0-8.982-10.884l-23.432-5.898-8.282-4.083a10.423 10.423 0 0 1-5.814-9.349v-5.136a29.9 29.9 0 0 1-14.339 3.649 29.883 29.883 0 0 1-13.461-3.198v4.685c0 3.969-2.254 7.593-5.814 9.349l-7.486 3.691c4.449 7.383-1.719 16.784-10.414 15.385v-.001c-.577 8.595-5.622 16.017-12.823 19.938v4.18c0 6.127 5.553 7.929 5.79 8.13l5.681 2.801 19.069 4.8a9.69 9.69 0 0 1 7.309 8.857l.955 17.426h72.073a3.31 3.31 0 0 0 3.305-3.494z" opacity="1" data-original="#70d6f9"></path><path fill="#f9c1a8" d="M209.463 168.293a10.423 10.423 0 0 1-5.814-9.349v-5.136a29.9 29.9 0 0 1-14.339 3.649 29.883 29.883 0 0 1-13.461-3.198v4.685c0 3.969-2.254 7.593-5.814 9.349l-1.301.641c3.93 7.626 11.887 12.875 21.015 12.875s17.084-5.25 21.015-12.875z" opacity="1" data-original="#f9c1a8"></path><path d="M221.977 99.887a4.107 4.107 0 0 0-3.984-4.035c-11.859-.349-17.937-5.088-20-7.11a4.167 4.167 0 0 0-3.144-1.173 4.14 4.14 0 0 0-2.978 1.556c-9.97 12.536-24.495 11.079-30.274 9.867a4.124 4.124 0 0 0-3.447.836 4.078 4.078 0 0 0-1.513 3.188v24.271c0 18.016 14.657 32.672 32.672 32.672s32.672-14.656 32.672-32.672V100.41zm-4.995 27.398c0 15.259-12.414 27.672-27.672 27.672s-27.672-12.413-27.672-27.672v-23.194c6.166 1.091 22.26 2.329 33.551-11.126 3.318 2.981 10.095 7.313 21.793 7.853z" fill="#000000" opacity="1" data-original="#000000" class=""></path><path d="M212.921 65.432c-2.75 0-5.474.59-7.995 1.721-3.721-4.799-9.503-7.698-15.59-7.698h-8.85c-18.551 0-33.644 15.093-33.644 33.644v13.955a2.5 2.5 0 0 0 4.062 1.952 9.982 9.982 0 0 1 7.852-2.091 2.516 2.516 0 0 0 2.009-.572 2.503 2.503 0 0 0 .873-1.898v-.353c6.165 1.09 22.26 2.327 33.551-11.126 3.318 2.981 10.095 7.313 21.793 7.853v3.626a2.501 2.501 0 0 0 2.882 2.47 10.043 10.043 0 0 1 8.556 2.711 2.502 2.502 0 0 0 2.713.501 2.5 2.5 0 0 0 1.522-2.301V85.167c.001-10.882-8.852-19.735-19.734-19.735zm14.735 37.707a14.992 14.992 0 0 0-5.673-1.338l-.005-1.914a4.107 4.107 0 0 0-3.984-4.035c-11.859-.349-17.937-5.088-20-7.11a4.167 4.167 0 0 0-3.144-1.173 4.14 4.14 0 0 0-2.978 1.556c-9.97 12.537-24.494 11.078-30.274 9.867a4.124 4.124 0 0 0-3.447.836 4.066 4.066 0 0 0-1.331 1.968 15.093 15.093 0 0 0-4.978.986v-9.684c0-15.794 12.85-28.644 28.644-28.644h8.85c5.125 0 9.967 2.767 12.636 7.221a2.504 2.504 0 0 0 3.43.86 14.63 14.63 0 0 1 7.519-2.103c8.125 0 14.735 6.61 14.735 14.735zM231.539 200.974a2.5 2.5 0 0 0-2.5 2.5v49.248a2.5 2.5 0 1 0 5 0v-49.248a2.5 2.5 0 0 0-2.5-2.5zM147.959 200.974a2.5 2.5 0 0 0-2.5 2.5v17.109a2.5 2.5 0 1 0 5 0v-17.109a2.5 2.5 0 0 0-2.5-2.5z" fill="#000000" opacity="1" data-original="#000000" class=""></path><path d="M221.418 101.79c-.754 0-1.535.062-2.318.183a2.5 2.5 0 0 0-2.118 2.471v22.842c0 .55-.022 1.139-.07 1.855a2.5 2.5 0 0 0 2.098 2.637c.869.14 1.657.207 2.409.207 8.325 0 15.097-6.772 15.097-15.097s-6.773-15.098-15.098-15.098zm.564 25.179v-20.163c5.306.294 9.533 4.703 9.533 10.082.001 5.378-4.226 9.787-9.533 10.081zM161.638 127.285v-22.842a2.5 2.5 0 0 0-2.118-2.471 15.259 15.259 0 0 0-2.318-.183c-8.325 0-15.097 6.772-15.097 15.098 0 8.324 6.772 15.097 15.097 15.097.751 0 1.54-.067 2.409-.207a2.501 2.501 0 0 0 2.098-2.636 27.582 27.582 0 0 1-.071-1.856zm-5-.316c-5.306-.294-9.533-4.703-9.533-10.081 0-5.379 4.227-9.788 9.533-10.082zM175.849 152.469a2.5 2.5 0 0 0-2.5 2.5v3.976a7.873 7.873 0 0 1-4.419 7.106l-7.131 3.516a2.5 2.5 0 1 0 2.211 4.485l7.132-3.516a12.845 12.845 0 0 0 7.208-11.591v-3.976a2.502 2.502 0 0 0-2.501-2.5zM255.991 249.869l-3.336-60.85a14.346 14.346 0 0 0-10.868-13.171l-23.175-5.832-8.043-3.966a7.874 7.874 0 0 1-4.419-7.106v-4.111a2.5 2.5 0 1 0-5 0v4.111c0 4.956 2.762 9.397 7.208 11.591l8.282 4.083c.158.078.324.14.495.183l23.432 5.897a9.365 9.365 0 0 1 7.096 8.597l3.336 60.85a.804.804 0 0 1-.221.602.802.802 0 0 1-.588.254h-72.073a2.5 2.5 0 1 0 0 5h72.073c1.59 0 3.128-.662 4.221-1.817a5.843 5.843 0 0 0 1.58-4.315z" fill="#000000" opacity="1" data-original="#000000" class=""></path><path d="M211.571 167.535a2.5 2.5 0 0 0-3.405.95c-3.764 6.677-10.82 10.824-18.417 10.824-7.66 0-14.745-4.198-18.491-10.956a2.5 2.5 0 1 0-4.373 2.423c4.627 8.347 13.388 13.532 22.864 13.532 9.398 0 18.125-5.123 22.772-13.369a2.497 2.497 0 0 0-.95-3.404zM199.888 134.184a2.5 2.5 0 0 0-3.522.311c-1.403 1.674-3.8 2.674-6.411 2.674s-5.007-1-6.41-2.674a2.501 2.501 0 0 0-3.522-.311 2.498 2.498 0 0 0-.311 3.521c2.342 2.795 6.171 4.463 10.243 4.463s7.901-1.668 10.243-4.463a2.5 2.5 0 0 0-.31-3.521zM202.381 114.06a3.97 3.97 0 1 0 0 7.94 3.97 3.97 0 0 0 0-7.94zM177.619 114.06a3.97 3.97 0 1 0 0 7.94 3.97 3.97 0 0 0 0-7.94zM76.381 116.06a3.97 3.97 0 1 0 0 7.94 3.97 3.97 0 0 0 0-7.94zM51.619 116.06a3.97 3.97 0 1 0 0 7.94 3.97 3.97 0 0 0 0-7.94z" fill="#000000" opacity="1" data-original="#000000" class=""></path><path fill="#f9c1a8" d="M149.501 164.368h-.028c-7.711 0-14.547-3.737-18.801-9.498a3.305 3.305 0 0 0-5.344 0c-4.255 5.76-11.09 9.498-18.801 9.498-.244 0-.487-.004-.729-.012a2.628 2.628 0 0 0-2.708 2.634v18.732c0 13.505 11.049 24.554 24.554 24.554 13.505 0 24.554-11.049 24.554-24.554v-18.714c-.001-1.479-1.217-2.642-2.697-2.64z" opacity="1" data-original="#f9c1a8"></path><path fill="#414344" d="M128 127.447c-18.161 0-32.883 14.722-32.883 32.883v8.927a10.198 10.198 0 0 1 7.972-2.123v-.144a2.628 2.628 0 0 1 2.708-2.634c.242.008.485.012.729.012 7.711 0 14.547-3.737 18.801-9.498a3.305 3.305 0 0 1 5.344 0c4.255 5.76 11.09 9.498 18.801 9.498h.028c1.48-.002 2.695 1.16 2.695 2.64v.125a10.214 10.214 0 0 1 8.686 2.751v-9.556c.002-18.159-14.72-32.881-32.881-32.881z" opacity="1" data-original="#414344" class=""></path><path fill="#f9c1a8" d="M153.772 167.009c-.536 0-1.062.045-1.576.125v18.588c0 .554-.025 1.102-.062 1.647.534.086 1.079.143 1.637.143 5.662 0 10.251-4.59 10.251-10.251.002-5.662-4.588-10.252-10.25-10.252zM103.089 185.722v-18.588a10.229 10.229 0 0 0-1.576-.125c-5.662 0-10.251 4.59-10.251 10.251 0 5.662 4.59 10.251 10.251 10.251.559 0 1.103-.057 1.637-.143a25.592 25.592 0 0 1-.061-1.646z" opacity="1" data-original="#f9c1a8"></path><path fill="#f5c84c" d="M177.161 236.074a9.689 9.689 0 0 0-7.309-8.857l-19.069-4.8-6.74-3.323a8.482 8.482 0 0 1-4.731-7.608v-4.18a24.333 24.333 0 0 1-11.669 2.97c-3.931 0-7.652-.942-10.955-2.603v3.813a8.483 8.483 0 0 1-4.731 7.608l-6.74 3.323-19.069 4.8a9.689 9.689 0 0 0-7.309 8.858l-.955 17.425h100.232z" opacity="1" data-original="#f5c84c"></path><path fill="#f9c1a8" d="M144.043 219.094a8.482 8.482 0 0 1-4.731-7.608v-4.18a24.333 24.333 0 0 1-11.669 2.97c-3.931 0-7.652-.942-10.955-2.603v3.813a8.483 8.483 0 0 1-4.731 7.608l-1.059.522c3.199 6.206 9.673 10.478 17.102 10.478s13.903-4.272 17.102-10.478z" opacity="1" data-original="#f9c1a8"></path><path d="M162.008 238.487a2.5 2.5 0 0 0-2.5 2.5v12.249a2.5 2.5 0 1 0 5 0v-12.249a2.5 2.5 0 0 0-2.5-2.5zM93.992 238.487a2.5 2.5 0 0 0-2.5 2.5v12.249a2.5 2.5 0 1 0 5 0v-12.249a2.5 2.5 0 0 0-2.5-2.5zM153.772 164.509c-.471 0-.956.028-1.442.085a2.5 2.5 0 1 0 .577 4.966c.284-.033.572-.052.865-.052 4.274 0 7.751 3.478 7.751 7.752 0 4.273-3.477 7.751-7.751 7.751-.271 0-.552-.019-.859-.057-1.369-.182-2.619.802-2.791 2.171a2.5 2.5 0 0 0 2.171 2.79c.514.064.998.096 1.479.096 7.031 0 12.751-5.72 12.751-12.751s-5.719-12.751-12.751-12.751zM104.94 187.21a2.495 2.495 0 0 0-2.739-2.235 7.12 7.12 0 0 1-.688.037c-4.274 0-7.751-3.478-7.751-7.751 0-4.274 3.477-7.752 7.751-7.752.207 0 .412.01.615.027a2.5 2.5 0 1 0 .428-4.982 12.373 12.373 0 0 0-1.042-.045c-7.031 0-12.751 5.721-12.751 12.752s5.72 12.751 12.751 12.751c.402 0 .799-.022 1.191-.063a2.5 2.5 0 0 0 2.235-2.739z" fill="#000000" opacity="1" data-original="#000000" class=""></path><path d="M179.657 235.936a12.138 12.138 0 0 0-9.195-11.144l-18.812-4.734-6.502-3.206a5.944 5.944 0 0 1-3.336-5.365v-3.361a2.5 2.5 0 1 0-5 0v3.361c0 4.214 2.347 7.987 6.125 9.85l6.74 3.323c.158.078.324.139.495.183l19.069 4.8a7.154 7.154 0 0 1 5.423 6.569l.812 14.788H80.524l.811-14.787a7.156 7.156 0 0 1 5.423-6.571l19.069-4.8c.171-.044.337-.104.495-.183l6.739-3.323a10.91 10.91 0 0 0 6.126-9.85v-2.944a2.5 2.5 0 1 0-5 0v2.944a5.943 5.943 0 0 1-3.336 5.365l-6.502 3.206-18.812 4.734a12.138 12.138 0 0 0-9.195 11.146l-.956 17.426A2.504 2.504 0 0 0 77.884 256h100.232a2.497 2.497 0 0 0 2.496-2.636z" fill="#000000" opacity="1" data-original="#000000" class=""></path><path d="M146.019 217.994a2.499 2.499 0 0 0-3.401.966c-2.972 5.325-8.573 8.634-14.617 8.634-5.961 0-11.524-3.241-14.518-8.46a2.5 2.5 0 1 0-4.337 2.488c3.883 6.768 11.108 10.972 18.855 10.972 7.855 0 15.129-4.291 18.983-11.198a2.502 2.502 0 0 0-.965-3.402zM136.55 190.979a2.5 2.5 0 0 0-3.522.31c-1.055 1.259-2.872 2.011-4.86 2.011s-3.805-.752-4.86-2.011a2.5 2.5 0 0 0-3.832 3.212c1.994 2.378 5.244 3.798 8.692 3.798s6.698-1.42 8.692-3.798a2.5 2.5 0 0 0-.31-3.522zM138.28 174.96a3.23 3.23 0 1 0 0 6.462 3.23 3.23 0 0 0 0-6.462zM118.129 174.96a3.23 3.23 0 1 0 0 6.462 3.23 3.23 0 0 0 0-6.462z" fill="#000000" opacity="1" data-original="#000000" class=""></path><path d="M153.196 163.389c-1.676-1.674-3.597-1.5-3.698-1.521-.103-.025-10.227.436-16.815-8.482-1.114-1.509-2.821-2.374-4.683-2.374s-3.569.865-4.683 2.374c-3.923 5.312-10.2 8.482-16.791 8.482-.217 0-.433-.004-.648-.011a5.09 5.09 0 0 0-3.725 1.439 5.097 5.097 0 0 0-1.564 3.693v18.732c0 14.917 12.136 27.054 27.054 27.054s27.054-12.137 27.054-27.054v-18.714a5.08 5.08 0 0 0-1.501-3.618zm-3.499 22.334c0 12.16-9.893 22.054-22.054 22.054s-22.054-9.894-22.054-22.054V166.99c0-.017 0-.062.127-.135.269.009.539.013.81.013 8.17 0 15.95-3.93 20.812-10.512.222-.3.51-.345.662-.345s.44.045.662.345c4.862 6.582 12.642 10.512 20.812 10.512h.032c.082 0 .13.032.191.141z" fill="#000000" opacity="1" data-original="#000000" class=""></path><path d="M128 124.947c-19.51 0-35.383 15.872-35.383 35.382v8.421a2.5 2.5 0 1 0 5 0v-8.421c0-16.753 13.63-30.382 30.383-30.382s30.382 13.629 30.382 30.382v8.546a2.5 2.5 0 1 0 5 0v-8.546c0-19.51-15.872-35.382-35.382-35.382z" fill="#000000" opacity="1" data-original="#000000" class=""></path><path fill="#fc657e" d="M151.62 29.348c-6.367-5.929-16.39-5.474-22.542.678a1.524 1.524 0 0 1-2.155 0c-6.152-6.152-16.175-6.608-22.542-.678-6.684 6.225-6.824 16.694-.421 23.097l20.725 20.726a4.688 4.688 0 0 0 6.63 0l20.725-20.726c6.404-6.403 6.264-16.872-.42-23.097z" opacity="1" data-original="#fc657e"></path><path d="M153.324 27.519c-6.988-6.51-18.152-6.402-25.324.084-7.173-6.487-18.336-6.593-25.324-.084-3.723 3.468-5.823 8.174-5.914 13.25-.09 5.079 1.838 9.854 5.429 13.444l20.725 20.726c1.357 1.357 3.163 2.105 5.083 2.105s3.726-.747 5.083-2.105l20.725-20.726c3.591-3.591 5.519-8.365 5.429-13.444-.089-5.077-2.189-9.783-5.912-13.25zm-3.051 23.159-20.725 20.726c-.827.826-2.268.826-3.095 0l-20.726-20.726a13.433 13.433 0 0 1-3.965-9.82c.065-3.708 1.601-7.146 4.322-9.681 2.519-2.346 5.787-3.506 9.087-3.506 3.604 0 7.244 1.385 9.983 4.124a4.031 4.031 0 0 0 5.69-.001c5.247-5.246 13.802-5.521 19.07-.617 2.722 2.535 4.257 5.973 4.322 9.681a13.425 13.425 0 0 1-3.963 9.82z" fill="#000000" opacity="1" data-original="#000000" class=""></path><path fill="#f5c84c" d="M98.444 15.882c-4.498-.837-8.043-4.31-8.898-8.716a.2.2 0 0 0-.395 0c-.855 4.406-4.4 7.879-8.898 8.716a.195.195 0 0 0 0 .387c4.498.838 8.043 4.311 8.898 8.717a.2.2 0 0 0 .395 0c.855-4.406 4.4-7.879 8.898-8.717a.195.195 0 0 0 0-.387z" opacity="1" data-original="#f5c84c"></path><path fill="#70d6f9" d="M181.891 43.951c-2.892-.539-5.172-2.772-5.722-5.605a.129.129 0 0 0-.254 0c-.55 2.833-2.829 5.067-5.722 5.605a.126.126 0 0 0 0 .249c2.892.539 5.172 2.772 5.722 5.605a.129.129 0 0 0 .254 0c.55-2.833 2.829-5.067 5.722-5.605a.126.126 0 0 0 0-.249z" opacity="1" data-original="#70d6f9"></path><path fill="#fc657e" d="M17.155 72.302h-2.329v-2.33a3.156 3.156 0 1 0-6.314 0v2.33h-2.33a3.156 3.156 0 1 0 0 6.314h2.33v2.33a3.156 3.156 0 1 0 6.314 0v-2.33h2.329a3.156 3.156 0 1 0 0-6.314z" opacity="1" data-original="#fc657e"></path><circle cx="110.461" cy="3.377" r="3.377" fill="#87d147" opacity="1" data-original="#87d147"></circle><path fill="#f5c84c" d="M3.377 99a3.377 3.377 0 1 0 0 6.754 3.377 3.377 0 0 0 0-6.754z" opacity="1" data-original="#f5c84c"></path></g></svg>