<svg xmlns="http://www.w3.org/2000/svg" version="1.1" xmlns:xlink="http://www.w3.org/1999/xlink" width="512" height="512" x="0" y="0" viewBox="0 0 100 100" style="enable-background:new 0 0 512 512" xml:space="preserve" class=""><g><path fill="#f30808" d="M90 35H65V10c0-2.759-2.241-5-5-5H40c-2.761 0-5 2.241-5 5v25H10c-2.761 0-5 2.241-5 5v20c0 2.759 2.239 5 5 5h25v25c0 2.759 2.239 5 5 5h20c2.759 0 5-2.241 5-5V65h25c2.759 0 5-2.241 5-5V40c0-2.759-2.241-5-5-5" opacity="1" data-original="#231f20"></path></g></svg>