<svg xmlns="http://www.w3.org/2000/svg" version="1.1" xmlns:xlink="http://www.w3.org/1999/xlink" width="512" height="512" x="0" y="0" viewBox="0 0 64 64" style="enable-background:new 0 0 512 512" xml:space="preserve" class=""><g><path fill="#d2aa82" d="M20.211 31.315 23.13 30H16v4l2 2v-1.107c0-1.525.847-2.896 2.211-3.578zM48 30h-7.128l2.844 1.28c1.436.717 2.284 2.088 2.284 3.613V36l2-2z" opacity="1" data-original="#d2aa82" class=""></path><path fill="#f0c8a0" d="m20.211 31.315 5.752-2.591a5.595 5.595 0 0 1-.548-.481l-1.657-1.657a5.95 5.95 0 0 1-1.687-3.314l-1.86-.93A3.978 3.978 0 0 1 18 18.764V18c0-1.491.82-2.794 2.033-3.482A4.036 4.036 0 0 1 20 14v-2h-6a2 2 0 0 0-2 2v6h-2a2 2 0 0 0-2 2v.764a2 2 0 0 0 1.106 1.789L12 26v.343c0 1.061.421 2.078 1.172 2.828l1.657 1.657A4.001 4.001 0 0 0 17.657 32h1.583a4.01 4.01 0 0 1 .971-.685zM54 20h-2v-6a2 2 0 0 0-2-2h-6v2.537c1.194.693 2 1.986 2 3.463v.764a3.98 3.98 0 0 1-2.211 3.578l-1.86.93a5.944 5.944 0 0 1-1.687 3.314l-1.655 1.657a5.765 5.765 0 0 1-.55.482l5.679 2.556c.389.194.731.44 1.028.72h1.599a3.995 3.995 0 0 0 2.828-1.172l1.657-1.657A4.001 4.001 0 0 0 52 26.344V26l2.894-1.447A2 2 0 0 0 56 22.764V22a2 2 0 0 0-2-2z" opacity="1" data-original="#f0c8a0" class=""></path><path fill="#dc9600" d="M54 22a4 4 0 0 1-4-4v-6h2a2 2 0 0 1 2 2z" opacity="1" data-original="#dc9600"></path><path fill="#d2aa82" d="M28 30v-4h8v4l-4 4z" opacity="1" data-original="#d2aa82" class=""></path><path fill="#f0c8a0" d="M42 16h-2v-6a2 2 0 0 0-2-2H26a2 2 0 0 0-2 2v6h-2a2 2 0 0 0-2 2v.764a2 2 0 0 0 1.106 1.789L24 22v.343c0 1.061.421 2.078 1.172 2.828l1.657 1.657A4.001 4.001 0 0 0 29.657 28h4.686a3.995 3.995 0 0 0 2.828-1.172l1.657-1.657A4.001 4.001 0 0 0 40 22.343V22l2.894-1.447A2 2 0 0 0 44 18.764V18a2 2 0 0 0-2-2z" opacity="1" data-original="#f0c8a0" class=""></path><path fill="#dc9600" d="M42 18a4 4 0 0 1-4-4V8h2a2 2 0 0 1 2 2z" opacity="1" data-original="#dc9600"></path><path fill="#fab400" d="M36 4h-8a6 6 0 0 0-6 6v4a2 2 0 0 0 2 2h5.029c3.183 0 6.235-1.264 8.485-3.515l1.314-1.314A3.995 3.995 0 0 0 40 8.343V8a4 4 0 0 0-4-4z" opacity="1" data-original="#fab400"></path><path fill="#be7800" d="M30 18.5h-4a.5.5 0 0 1 0-1h4a.5.5 0 0 1 0 1z" opacity="1" data-original="#be7800"></path><circle cx="29" cy="19" r="1" fill="#be7800" opacity="1" data-original="#be7800"></circle><path fill="#be7800" d="M38 18.5h-4a.5.5 0 0 1 0-1h4a.5.5 0 0 1 0 1z" opacity="1" data-original="#be7800"></path><circle cx="35" cy="19" r="1" fill="#be7800" opacity="1" data-original="#be7800"></circle><path fill="#be7800" d="M32 24.5c-.668 0-1.296-.26-1.768-.732l-.586-.585a.5.5 0 0 1 .707-.707l.586.585c.566.566 1.555.566 2.121 0l.586-.585a.5.5 0 0 1 .707.707l-.586.585A2.48 2.48 0 0 1 32 24.5z" opacity="1" data-original="#be7800"></path><path fill="#505050" d="M10 56h12v4H10z" opacity="1" data-original="#505050" class=""></path><path fill="#3c3c3c" d="M10 56h4v4h-4z" opacity="1" data-original="#3c3c3c" class=""></path><path fill="#505050" d="M42.001 56h12v4h-12z" opacity="1" data-original="#505050" class=""></path><path fill="#3c3c3c" d="M42.001 56h4v4h-4z" opacity="1" data-original="#3c3c3c" class=""></path><path fill="#f0c8a0" d="M59.995 30h-.299a2 2 0 0 0-1.973 1.671l-1.3 7.8a7.993 7.993 0 0 1-2.234 4.341L52.001 46l1.578-3.156a3.995 3.995 0 0 0 .422-1.789v-.642c0-.891-1.077-1.337-1.707-.707l-5.95 5.95a8 8 0 0 0-2.343 5.657V56h8v-1.929a5 5 0 0 1 1.464-3.535l4.191-4.191a7.985 7.985 0 0 0 2.343-5.653L59.995 30z" opacity="1" data-original="#f0c8a0" class=""></path><path fill="#fab400" d="M18 18c0-1.491.82-2.794 2.033-3.482A4.036 4.036 0 0 1 20 14v-4c0-.692.097-1.359.263-2H16a6 6 0 0 0-6 6v4a2 2 0 0 0 2 2h5.029c.386 0 .77-.02 1.151-.057a4.023 4.023 0 0 1-.18-1.179zM48 8h-4.545c.342.59.545 1.27.545 2v4.537c1.194.693 2 1.986 2 3.463v.764c0 .05-.008.099-.01.149 1.298-.59 2.498-1.4 3.525-2.427l1.314-1.314a4.001 4.001 0 0 0 1.172-2.828V12A4.002 4.002 0 0 0 48 8z" opacity="1" data-original="#fab400"></path><path fill="#3cc8b4" d="M11.007 37.412c.795 0 1.546.313 2.114.881L18 43.172V36l-2-2-6.796 3.06.142.853a2.999 2.999 0 0 1 1.661-.501z" opacity="1" data-original="#3cc8b4"></path><path fill="#fa6450" d="M44 45.332V34.893a2 2 0 0 0-1.106-1.789L36 30l-4 4-4-4-6.894 3.104A2 2 0 0 0 20 34.893V45.33a9.912 9.912 0 0 1 2 5.983V52h20.001v-.687c0-2.188.708-4.262 1.999-5.981z" opacity="1" data-original="#fa6450" class=""></path><path fill="#dc4632" d="m28 30-6.894 3.104A2 2 0 0 0 20 34.893V45.33a9.912 9.912 0 0 1 2 5.983V52h2V34.893a2 2 0 0 1 1.106-1.789l4.136-1.862z" opacity="1" data-original="#dc4632" class=""></path><path fill="#3cc8b4" d="M52.994 37.412c.613 0 1.185.185 1.661.501l.142-.853L48 34l-2 2v7.173l4.88-4.88a2.97 2.97 0 0 1 2.114-.881z" opacity="1" data-original="#3cc8b4"></path><path fill="#f0c8a0" d="M4.007 30h.299a2 2 0 0 1 1.973 1.671l1.3 7.8a7.993 7.993 0 0 0 2.234 4.341L12 46l-1.578-3.156A4.004 4.004 0 0 1 10 41.056v-.642c0-.891 1.077-1.337 1.707-.707l5.95 5.95A8 8 0 0 1 20 51.314V56h-8v-1.929a5 5 0 0 0-1.464-3.535l-4.191-4.191a7.984 7.984 0 0 1-2.344-5.654L4.007 30z" opacity="1" data-original="#f0c8a0" class=""></path></g></svg>