<svg xmlns="http://www.w3.org/2000/svg" version="1.1" xmlns:xlink="http://www.w3.org/1999/xlink" width="512" height="512" x="0" y="0" viewBox="0 0 48 48" style="enable-background:new 0 0 512 512" xml:space="preserve" class=""><g><g data-name="14-lost and found"><path d="M32 1a4 4 0 0 1 4 4h-3a1 1 0 0 0-2 0h-3a4 4 0 0 1 4-4Z" style="" fill="#707789" data-original="#707789"></path><path d="M43.85 11.1 42 25h-3l1-11.54V13c1.85 0 3.4-.31 3.85-1.9ZM36 11v14h-3l-1-11.54V13c2.21 0 4-.45 4-3Z" style="" fill="#f26973" data-original="#f26973"></path><path d="M36 10c0 2.55 1.79 3 4 3v.46L39 25h-3V10ZM32 13.46 33 25h-3l-1.85-13.9c.45 1.59 2 1.9 3.85 1.9Z" style="" fill="#e65263" data-original="#e65263"></path><path d="M17 1a2.006 2.006 0 0 1 2 2v1H9V3a2.006 2.006 0 0 1 2-2Z" style="" fill="#5597e6" data-original="#5597e6"></path><path d="M20 25H4V12a4 4 0 0 1 4-4h12a4 4 0 0 1 4 4v13Z" style="" fill="#ade1fa" data-original="#ade1fa"></path><path d="M4 25h41a2.006 2.006 0 0 1 2 2v14a6 6 0 0 1-6 6H7a6 6 0 0 1-6-6V27a2.006 2.006 0 0 1 2-2Z" style="" fill="#cdd2e1" data-original="#cdd2e1" class=""></path><path d="M45 25H3a2.006 2.006 0 0 0-2 2v2h40a2.006 2.006 0 0 1 2 2v14a6 6 0 0 1-.259 1.741A6.008 6.008 0 0 0 47 41V27a2.006 2.006 0 0 0-2-2Z" style="" fill="#e1e4ed" data-original="#e1e4ed" class=""></path><path d="M24 12a4 4 0 0 0-4-4H8a3.994 3.994 0 0 0-3.892 3.108A3.974 3.974 0 0 1 5 11h12a4 4 0 0 1 4 4v10h3Z" style="" fill="#d4effc" data-original="#d4effc"></path><path d="M4 22v3h17v-3H4z" style="" fill="#8ed8f8" data-original="#8ed8f8"></path><path d="M21 22h3v3h-3z" style="" fill="#ade1fa" data-original="#ade1fa"></path><path d="M39.26 22 39 25h3l.399-3H39.26zM32.74 22l.26 3h3v-3h-3.26z" style="" fill="#e65263" data-original="#e65263"></path><path d="M36 22v3h3l.26-3H36zM29.601 22 30 25h3l-.26-3h-3.139z" style="" fill="#d74157" data-original="#d74157"></path><path d="M45 24h-1.858l1.7-12.768A4.711 4.711 0 0 0 45 10a1 1 0 0 0-1.991-.135l-.136 1C42.662 11.548 42.078 12 40 12c-2.551 0-3-.645-3-2V5a5 5 0 0 0-10 0 1 1 0 0 0 1 1h3a1 1 0 0 0 1-1 1 1 0 0 0 1 1h2v4c0 1.355-.449 2-3 2-2.078 0-2.662-.452-2.873-1.132l-.136-1A1 1 0 0 0 27 10a4.711 4.711 0 0 0 .159 1.232L28.858 24H25V12a5.006 5.006 0 0 0-5-5h-2V5h1a1 1 0 0 0 1-1V3a3 3 0 0 0-3-3h-6a3 3 0 0 0-3 3v1a1 1 0 0 0 1 1h1v2H8a5.006 5.006 0 0 0-5 5v12a3 3 0 0 0-3 3v14a7.008 7.008 0 0 0 7 7h34a7.008 7.008 0 0 0 7-7V27a3 3 0 0 0-3-3Zm-4.041-10.03a6.477 6.477 0 0 0 1.538-.284L41.125 24H40.09Zm-2.006-.01L38.083 24H37V13.482a5.826 5.826 0 0 0 1.953.478ZM33.731 4a2 2 0 0 0-3.462 0h-1.1a3 3 0 0 1 5.658 0ZM35 13.482V24h-1.083l-.87-10.04A5.826 5.826 0 0 0 35 13.482ZM31.91 24h-1.035L29.5 13.686a6.477 6.477 0 0 0 1.538.284ZM11 2h6a1 1 0 0 1 1 1h-8a1 1 0 0 1 1-1Zm1 3h4v2h-4Zm-7 7a3 3 0 0 1 3-3h12a3 3 0 0 1 3 3v12h-2V12h-2v12h-2V12h-2v12h-2V12h-2v12H9V12H7v12H5Zm41 29a5.006 5.006 0 0 1-5 5H7a5.006 5.006 0 0 1-5-5V27a1 1 0 0 1 1-1h42a1 1 0 0 1 1 1Z" style="" fill="#292929" data-original="#292929"></path><path d="M4 28h2v13H4zM42 28h2v13h-2zM24 30a3.8 3.8 0 0 0-4 3.75h2A1.818 1.818 0 0 1 24 32a1.818 1.818 0 0 1 2 1.75c0 .374 0 1.25-2 1.25a1 1 0 0 0-1 1v3h2v-2.071a3.118 3.118 0 0 0 3-3.179A3.8 3.8 0 0 0 24 30ZM23 40h2v2h-2z" style="" fill="#292929" data-original="#292929"></path></g></g></svg>