<svg xmlns="http://www.w3.org/2000/svg" version="1.1" xmlns:xlink="http://www.w3.org/1999/xlink" width="512" height="512" x="0" y="0" viewBox="0 0 512 512" style="enable-background:new 0 0 512 512" xml:space="preserve" class=""><g><linearGradient id="a" x1="73.844" x2="381.109" y1="-10.099" y2="522.099" gradientUnits="userSpaceOnUse"><stop offset="0" stop-color="#34fba7"></stop><stop offset=".345" stop-color="#21dea3"></stop><stop offset="1" stop-color="#00ab9d"></stop></linearGradient><path fill="url(#a)" d="M50.005 490.163H398.6V512H19.165V34.532h24.493v449.284a6.347 6.347 0 0 0 6.347 6.347zm372.963-108.857a118.008 118.008 0 0 0 12.82-5.542v101.7H56.352V0h379.436v192.865a320.467 320.467 0 0 1-10.974-8.6 6.346 6.346 0 0 0-8.025 0A240.948 240.948 0 0 1 391.4 202.73a6.333 6.333 0 0 0-5.075-2.547H196.6a6.348 6.348 0 1 0 0 12.695h174.54a63.287 63.287 0 0 1-24.471 4.406 6.358 6.358 0 0 0-6.413 4.855 146.662 146.662 0 0 0-3.934 27.79H196.6a6.347 6.347 0 1 0 0 12.694h139.708a143.323 143.323 0 0 0 6.479 37.051H196.6a6.347 6.347 0 1 0 0 12.694h150.87q1.135 2.667 2.381 5.289a129.41 129.41 0 0 0 21.3 31.762H196.6a6.348 6.348 0 1 0 0 12.695h187.184a6.394 6.394 0 0 0 .8-.056 118.6 118.6 0 0 0 34.052 19.248 6.335 6.335 0 0 0 4.333 0zM219.934 85.913a6.347 6.347 0 0 0 6.347 6.347h98.292a6.347 6.347 0 1 0 0-12.694h-98.292a6.347 6.347 0 0 0-6.347 6.347zm0 43.969a6.347 6.347 0 0 0 6.347 6.347h147.434a6.347 6.347 0 1 0 0-12.694H226.281a6.347 6.347 0 0 0-6.347 6.347zm-96.608-65.944a26.219 26.219 0 1 0 26.219-26.219 26.249 26.249 0 0 0-26.219 26.219zm-23.753 90.045h99.944a6.346 6.346 0 0 0 6.231-7.552 57.257 57.257 0 0 0-112.406 0 6.346 6.346 0 0 0 6.231 7.552zM164.347 384.9a6.348 6.348 0 0 0-8.976 0l-23.861 23.864L121 398.252a6.347 6.347 0 0 0-8.976 8.976l15 15a6.347 6.347 0 0 0 8.976 0l28.349-28.348a6.348 6.348 0 0 0-.002-8.98zm0-49.745a6.348 6.348 0 0 0-8.976 0l-23.861 23.864L121 348.507a6.347 6.347 0 0 0-8.976 8.976l15 15a6.347 6.347 0 0 0 8.976 0l28.349-28.349a6.346 6.346 0 0 0-.002-8.976zm0-49.745a6.346 6.346 0 0 0-8.976 0l-23.861 23.86L121 298.761a6.347 6.347 0 0 0-8.976 8.977l15 15a6.347 6.347 0 0 0 8.976 0l28.349-28.349a6.346 6.346 0 0 0-.002-8.976zm0-49.746a6.348 6.348 0 0 0-8.976 0l-23.861 23.864L121 249.016a6.347 6.347 0 0 0-8.976 8.976l15 15a6.347 6.347 0 0 0 8.976 0l28.349-28.348a6.348 6.348 0 0 0-.002-8.977zm0-49.745a6.348 6.348 0 0 0-8.976 0l-23.861 23.864L121 199.271a6.347 6.347 0 0 0-8.976 8.976l15 15a6.347 6.347 0 0 0 8.976 0l28.347-28.347a6.346 6.346 0 0 0 0-8.978zm228.329 219.59a6.347 6.347 0 0 0-6.347-6.347H196.6a6.348 6.348 0 1 0 0 12.695h189.729a6.348 6.348 0 0 0 6.347-6.345zM149.545 77.462a13.525 13.525 0 1 0-13.525-13.524 13.54 13.54 0 0 0 13.525 13.524zm0 35.341a44.632 44.632 0 0 0-41.572 28.486h83.143a44.631 44.631 0 0 0-41.571-28.489zM420.8 368.561c-52.332-20.291-81.457-78.855-69.28-138.613 25.6-1.163 49.961-17.263 69.28-32.612 19.32 15.35 43.68 31.451 69.28 32.612 12.179 59.758-16.946 118.322-69.28 138.613zm52.153-94.148a13.179 13.179 0 0 0-13.164-13.164h-17.974v-17.975a13.178 13.178 0 0 0-13.164-13.164h-15.7a13.179 13.179 0 0 0-13.164 13.164v17.975h-17.975a13.179 13.179 0 0 0-13.163 13.164v15.7a13.178 13.178 0 0 0 13.163 13.163h17.976v17.977a13.179 13.179 0 0 0 13.164 13.163h15.7a13.178 13.178 0 0 0 13.164-13.163v-17.977h17.976a13.178 13.178 0 0 0 13.164-13.163zm-13.164-.469h-24.321a6.347 6.347 0 0 1-6.347-6.347v-24.323a.489.489 0 0 0-.47-.47h-15.7a.489.489 0 0 0-.47.47V267.6a6.347 6.347 0 0 1-6.347 6.347h-24.322a.487.487 0 0 0-.469.469v15.7a.488.488 0 0 0 .469.469h24.323a6.347 6.347 0 0 1 6.347 6.347v24.324a.489.489 0 0 0 .47.469h15.7a.488.488 0 0 0 .47-.469v-24.327a6.347 6.347 0 0 1 6.347-6.347h24.323a.488.488 0 0 0 .47-.469v-15.7a.488.488 0 0 0-.471-.469z" opacity="1" data-original="url(#a)" class=""></path></g></svg>