<svg xmlns="http://www.w3.org/2000/svg" version="1.1" xmlns:xlink="http://www.w3.org/1999/xlink" width="512" height="512" x="0" y="0" viewBox="0 0 136 136" style="enable-background:new 0 0 512 512" xml:space="preserve"><g><path fill="#cedef5" d="M62.82 44.51c14.08-7.27 31.16-5.96 44.83 1.45 9.26 5.02 17.32 12.91 21.41 23.05 5.3 13.15 3.22 29.26-4.6 41.27s-20.94 19.79-34.51 21.39c-13.06 1.55-26.59-2.53-36.48-11.4-22.48-20.16-18.51-61.36 9.35-75.76z" opacity="1" data-original="#cedef5"></path><path d="M121.62 108.41c-7.29 11.18-19.49 18.41-32.11 19.91-12.15 1.43-24.74-2.36-33.93-10.6-4.63-4.16-8.05-9.27-10.29-14.86 8.39 6.89 19.47 10.01 30.18 8.73 11.7-1.38 23.03-8.09 29.78-18.45s8.54-24.26 3.96-35.61c-1.59-3.97-3.91-7.54-6.71-10.65 1.19.51 2.34 1.09 3.48 1.7 8.62 4.67 16.11 12.01 19.92 21.45 4.93 12.22 3 27.22-4.28 38.38z" opacity="1" fill="#00000010" data-original="#00000010"></path><g fill="#43b5fb"><path d="M124.46 110.28c-5.47 8.4-13.54 14.74-22.55 18.33.27-2.27 1.42-4.44 3.2-5.88.57-.46 1.21-.86 1.68-1.42.91-1.11 1-2.85.19-4.04 1.32.26 2.64-.57 3.38-1.7.74-1.11 1.01-2.46 1.26-3.78.29-1.53.59-3.06.88-4.59.08-.41.16-.85-.03-1.23-.22-.45-.75-.64-1.14-.96-.4-.31-.65-.98-.25-1.28-2.19.07-4.38.14-6.57.2-.82.03-1.92-.16-2.02-.98-.05-.44.25-.87.22-1.31-.06-.99-1.42-1.14-2.26-1.68-1.7-1.1-.98-3.32-.64-4.88.42-2.04.48-4.18 2.05-5.76.79-.8 1.88-1.31 2.58-2.2.85-1.09.99-2.58 1.71-3.76.9-1.48 2.66-2.32 4.4-2.36.45-.01.91.03 1.36-.01.64-.06 1.25-.26 1.88-.38 1.85-.36 3.75.03 5.58.41.28.06.59.14.71.39.28.55-.61 1.1-.49 1.7.15.74 1.35.43 1.93.89.32.25.41.68.47 1.09.05.4.09.83.36 1.14.26.3.85.35 1.02-.01 0-.34.01-.68.01-1.01.66-.24 1.4-.01 2.04.3.63.31 1.25.7 1.95.77.7.08 1.51-.29 1.65-.98.1-.55-.26-1.1-.68-1.46-.43-.37-.95-.64-1.31-1.07-.52-.62-.66-1.51-.37-2.26s1.02-1.3 1.81-1.38c.24-.03.5-.02.7-.14.55-.3.35-1.19-.13-1.58-.49-.4-1.13-.53-1.62-.93s-.69-1.28-.15-1.58c-.35-.03-.7-.06-1.05-.07.59.66 1.01 1.57.82 2.44-.2.87-1.23 1.55-2.03 1.15-.76-.39-1.08-1.56-1.93-1.62-.72-.06-1.2 1-.68 1.51-.38.57-1.33.43-1.8-.07-.48-.5-.64-1.21-.9-1.85s-.73-1.29-1.42-1.36c-.36-.04-.71.09-1.05.22-1.08.41-2.18.83-3.02 1.62-.5.47-.88 1.04-1.39 1.48-.54.46-1.34.61-2.03.53-1-.11-1.23-.63-1.9-1.21-.76-.65-3.24-1.47-1.92-2.98.53-.6 1.48-.51 2.27-.31.76.19 1.73.47 2.38-.11.59-.53.71-1.57.16-2.15-.31-.32-.76-.48-1.11-.76s-.6-.8-.34-1.17c.27-.4.86-.3 1.34-.37.53-.06.91-.36 1.28-.72.19-.18.8-.6.89-.8.09-.18.08-.41.09-.61.01-.21.05-.44.19-.59.17-.16.41-.18.64-.18.48.03 1.2-.14 1.54-.49.39-.4.28-.88.97-1.02 1.22-.26 1.93.88 3.07.79.61-.06 1.14-.82.75-1.27-.19-.22-.54-.32-.58-.61-.07-.51.87-.54 1.02-1.02.16-.45-.48-.76-.95-.73-.47.04-1.02.18-1.36-.16-.53-.54.12-1.74-.54-2.11-.51-.28-1.25.31-1.65-.11-.28-.28-.07-.75.17-1.05.25-.31.54-.66.43-1.04-.09-.33-.47-.5-.81-.47-.33.04-.64.21-.92.39-.88.55-2.29 1.85-3.32.86-.41-.4-.52-1.09-.24-1.59.66.01 1.11-.72 1.12-1.37.03-.65-.21-1.29-.24-1.94-.04-.65.24-1.42.87-1.59.85-.23 1.54.71 2.39.91.44.1.88 0 1.29-.18 4.81 4.36 8.78 9.7 11.27 15.88 5.33 13.17 3.24 29.28-4.58 41.28zM84.53 109.88c-.87 1.01-2.66.79-3.46 1.85-.73.99-.17 2.41-.56 3.57-.53 1.56-2.23 1.94-3.66 1.92-.43-.01-.93 0-1.23.33-.49.53-.41 1.31-.96 1.88-.48.48-1.08.76-1.38 1.4-.29.63-.24 1.42-.72 1.91-.3.31-.76.41-1.19.53-.42.1-.88.25-1.13.6-.26.35-.17.98.25 1.09.32.08.78-.06.88.24.07.22-.15.41-.32.55-.61.51-.92 1.35-.78 2.13.14.77.71 1.46 1.46 1.73.73.27 1.67.21 2.1.86.07.11.12.22.15.35-1.83-.42-3.65-.95-5.42-1.58-.17-.46-.35-.91-.64-1.3-.33-.44-.79-.82-.91-1.35-.08-.4.02-.88-.29-1.14-.23-.19-.57-.16-.82-.31-.37-.23-.4-.76-.34-1.19.05-.43.09-.94-.22-1.24-.19-.19-.5-.26-.68-.47-.37-.41-.06-1.07-.16-1.61-.15-.87-1.21-1.21-1.74-1.9-.64-.83-.43-1.99-.25-3 .48-2.65-1.09-5.56-3.67-6.49-.84-.29-1.86-.5-2.22-1.31-.27-.61-.02-1.31.18-1.93.21-.64.35-1.4-.06-1.92-.39-.48-1.08-.53-1.65-.75-.58-.22-1.12-.91-.76-1.4.34-.46 1.23-.36 1.39-.91.14-.53-.57-.83-.88-1.27-.36-.51-.17-1.22.18-1.72s.86-.88 1.23-1.37c.37-.5.57-1.2.24-1.71-.18-.28-.47-.46-.65-.73-.19-.27-.19-.72.11-.84.28-.11.55.15.85.21.41.08.79-.22 1.03-.55.25-.34.41-.74.74-.99.32-.27.88-.31 1.11.03 0 .34.01.68.02 1.02.28.31.8.08 1.07-.24.27-.31.5-.73.9-.8.41-.07.77.23 1.01.55.25.33.44.71.79.92.57.33 1.28.08 1.93-.08.64-.17 1.47-.16 1.78.42.26.52.01 1.29.5 1.59.45.27 1.11-.18 1.53.12.41.28.23.9.37 1.36.21.71 1.11.93 1.84.92.75-.02 1.57-.14 2.16.31.57.42.71 1.22.86 1.92.2.89.49 1.86.12 2.71.97-.08 1.95-.17 2.88.11.58.18 1.14.53 1.51 1.03.46.64.3 1.17 1.27.7.44-.21.88-.52 1.37-.49.62.03 1.11.57 1.27 1.16.17.59.08 1.22 0 1.82.69-.18 1.48.15 1.86.76.36.6.28 1.45-.19 1.99zM75.52 50.66c.12.25.34.43.48.68.13.25.13.61-.12.74-.21.12-.48-.01-.67-.17-.18-.16-.38-.34-.62-.36-.25-.03-.5.29-.33.46.45.11.76.63.64 1.08s-.64.75-1.09.63c-.44-.12-.74-.64-.62-1.09-.15-.06-.29-.13-.43-.19.14.24-.12.57-.4.56s-.5-.26-.57-.53-.02-.55.04-.83c.06-.27.11-.54.06-.82-.2.07-.45.02-.6-.15-.16-.14-.04-.41.14-.53.17-.11.39-.16.54-.3.24-.24.16-.72-.16-.87.59.01 1.14-.51 1.18-1.1s-.44-1.17-1.03-1.24c-.59-.06-1.19.38-1.3.96-.04.23-.01.46-.06.68-.11.65-.77 1.1-1.44 1.17-.65.08-1.31-.12-1.93-.32.18.35.38.71.41 1.11.09.76-.56 1.58-1.36 1.34-.32-.1-.59-.34-.88-.52s-.64-.3-.96-.18c-.45.19-.57.82-1 1.04-.67.33-1.54-.53-2.16-.12-.41.27-.41.89-.76 1.23-.22.2-.54.25-.82.38-.39.19-.68.63-.61 1.06.06.43.57.76.97.59.15-.07.29-.2.45-.2.19 0 .33.19.37.38s0 .39 0 .58c0 .45.26.9.64 1.14.36.22.85.1 1.14.41.57.59-.24 1.14-.56 1.59-.21.3-.34.72-.17 1.05.24.46.97.46 1.35.1s.48-.92.46-1.45c-.01-.28-.05-.57.06-.84.15-.38.54-.6.93-.71s.8-.14 1.17-.3c.38-.16.72-.48.72-.88.01-.47-.43-.89-.33-1.35.09-.39.52-.57.89-.69.39-.12.82-.27.97-.64.09-.24.04-.52.05-.78s.15-.56.41-.59c.42-.04.59.68 1.02.71.42.04.72-.63 1.12-.49.49.18.08 1.12.55 1.35.27.13.6-.13.88-.02.28.12.28.53.11.78-.17.26-.44.42-.62.66s-.22.64.04.8c.48.29 1.21.4 1.74.19.5-.2.29-.67.67-.97.29-.23.74 0 .97.29.49.64.51 1.59.06 2.27-.11.16-.24.3-.3.49-.07.18-.04.41.13.52.11.07.27.06.4.1.34.11.41.55.41.91-.01.35-.02.78.29.98.23.16.53.09.81.11.46.03.89.32 1.1.75.2.41.16.94-.11 1.32-.32.47-1 .84-.88 1.4.06.34.42.55.76.57.34.03.67-.1.99-.22-.3.52-.6 1.16-.28 1.66.09.14.22.24.3.38.21.36 0 .87-.38 1.04-.37.18-.84.05-1.13-.25-.27-.26-.41-.63-.68-.88-.27-.27-.78-.35-.97-.03-.06-.46-.17-.99-.58-1.22-.14-.06-.29-.1-.41-.2-.22-.22-.07-.62.17-.78.25-.18.57-.21.87-.3.29-.1.59-.31.61-.62.03-.42-.52-.68-.93-.58s-.74.41-1.11.61c-.66.36-1.52.37-2.18.02-.4-.21-.75-.53-1.19-.56-.27-.02-.52.08-.76.18-.91.37-1.83.74-2.75 1.1-.06.36.33.65.68.63.36-.02.66-.25.96-.46.29-.21.61-.42.97-.41.35.01.71.37.58.7s-.64.41-.73.76c-.11.36.31.64.54.94.39.52.12 1.38-.36 1.76-.57.44-1.54.27-2.17.11-.92-.24-2.1-.42-2.64.36-.27.39-.28.88-.41 1.33-.25.8-.96 1.45-1.79 1.61-.48.09-.98.03-1.46.08-.48.06-1 .26-1.22.7-.25.52.01 1.12.05 1.7.06.99-.66 1.96-1.62 2.2-1 .24-2.31-.18-2.93.66-.39.52-.24 1.25-.01 1.86.22.6.52 1.24.38 1.87-.15.64-1.01 1.1-1.46.63-.31-.33-.2-.87-.27-1.32-.06-.44-.64-.89-.92-.53-.05-.65-.15-1.35-.55-1.86-.41-.51-1.23-.76-1.73-.33-.22.18-.36.47-.6.64-.86.58-2.08-.76-2.96-.22-.36.22-.49.69-.49 1.11 0 .43.11.86.07 1.28-.1 1.31-1.45 2.33-1.36 3.64.05.72.59 1.38 1.29 1.57.7.18 1.5-.12 1.9-.72.36-.54.46-1.32 1.04-1.59.64-.3 1.43.3 1.52 1 .09.71-.29 1.38-.76 1.92-.4.46-.9 1.05-.64 1.6.24.53.97.56 1.54.5.58-.06 1.28-.08 1.59.41.29.46 0 .99-.27 1.4-.23.33-.83.62-.74 1.07.06.29.29.5.51.69s.46.4.53.68c.05.18.02.37.06.54.12.43.6.64.98.89.37.25.69.78.39 1.11-.1.26-.49.28-.72.13-.23-.16-.37-.41-.55-.63a1.75 1.75 0 0 0-1.35-.61c-.42.01-.87.17-1.28.06-.53-.15-.84-.71-.91-1.25-.08-.53.01-1.09-.02-1.63-.02-.55-.18-1.14-.63-1.46-.58-.41-1.57-.3-1.83-.96-.17-.41.03-.93-.27-1.24-.23-.23-.62-.19-.91-.06-.3.13-.57.33-.89.39-.38.06-.77-.1-1.07-.35-.29-.25-.52-.57-.73-.89-.45-.69-.93-1.46-.86-2.28.07-.88.76-1.69.62-2.56-.17-.96-1.17-1.41-1.74-2.09-.76-.89-.69-1.84-.17-2.87.41-.78.91-1.63.68-2.49-.17-.65-.73-1.11-1.18-1.61a.642.642 0 0 1-.1-.13c3.14-10.89 9.99-20.66 20.4-26.57.06.06.11.13.17.2.2.31.37.72.72.82.31.09.65-.08.97-.01.51.11.77.82 1.3.8.23-.01.42-.17.6-.32.17-.17.33-.34.55-.4.23-.06.52.05.55.28.2.24.64.12.83-.13.19-.26.24-.59.34-.89s.3-.63.62-.67c.2-.03.42.05.59-.06.32-.18.13-.68.29-1s.65-.35.9-.1.27.67.11.99c-.17.32-.46.54-.77.71-.29.16-.62.28-.87.51-.25.22-.41.59-.27.89.12.26.41.39.7.39.28-.01.54-.11.81-.21.2-.08.42-.18.54-.37.12-.21.08-.48.11-.72.07-.76.89-1.35 1.64-1.2-.37-.38-.15-1.1.34-1.32.48-.22 1.08-.04 1.47.32.16.14.29.3.51.36.54.13 1.08-.69 1.57-.41.32.19.25.68.12 1.04-.13.35-.24.82.06 1.05.26.19.63.05.95.06.64.02 1.11.81.84 1.38-.13.25-.35.43-.53.64-.17.21-.3.51-.2.76.11.29.47.41.78.42.32.02.65 0 .93.17.37.22.46.76.3 1.16-.17.41-.52.7-.88.93-.44.28-1.09.45-1.43.06-.22-.26-.18-.64-.26-.98-.06-.33-.38-.69-.68-.55-.24.09-.25.46-.13.71z" fill="#43b5fb" opacity="1" data-original="#43b5fb"></path></g><path d="M122.49 109c-7.27 11.16-19.54 18.77-32.82 20.33-1.71.21-3.45.31-5.17.31-10.83 0-21.57-4.05-29.44-11.12-8.97-8.04-13.92-20.05-13.76-32.95.21 11.96 4.96 23.06 13.32 30.54 7.64 6.85 18.03 10.77 28.53 10.77 1.67 0 3.36-.09 5.01-.29 12.86-1.52 24.74-8.89 31.79-19.7 7.32-11.25 8.98-26.11 4.24-37.87-3.49-8.66-10.49-16.18-19.71-21.18-6.8-3.68-14.36-5.69-21.89-5.8.21-.01.41-.01.62-.01 8.02 0 16.08 2.07 23.32 6 9.51 5.16 16.74 12.93 20.34 21.87 4.9 12.14 3.18 27.49-4.38 39.1z" opacity="1" fill="#00000010" data-original="#00000010"></path><path d="M123 65.43c-3.95-5.71-9.38-10.28-15.37-13.53-12.36-6.7-27.81-7.89-40.52-1.31-25.18 13-28.77 50.25-8.44 68.47 1.27 1.14 2.63 2.2 4.03 3.17a41.09 41.09 0 0 1-6.54-4.79c-20.63-18.49-16.99-56.28 8.57-69.49 12.91-6.67 28.57-5.47 41.11 1.33 6.89 3.75 13.07 9.23 17.16 16.15z" opacity="1" fill="#00000010" data-original="#00000010"></path><path fill="#fff" d="M125.32 61.89c-1 .21-1.98.47-2.96.77-6.48 1.96-12.68 5.76-16.1 11.61-1.93 3.3-2.9 7.05-4.31 10.6-1.43 3.55-3.48 7.07-6.8 8.95-2.48 1.4-5.49 1.78-7.7 3.56-2.91 2.35-3.65 6.51-3.42 10.24.25 3.72 1.26 7.41 1.03 11.15-.31 4.96-2.88 9.44-6.54 12.86-9.19-1.18-18.02-5.06-25.04-11.34-22.49-20.17-18.52-61.38 9.35-75.77 14.07-7.27 31.15-5.95 44.83 1.45 6.95 3.76 13.24 9.16 17.66 15.92z" opacity=".2"></path><path fill="#fff" d="M129.72 99.12c-5.85-8.06-15.82-13.18-25.81-12.69-4.4.21-8.95 1.37-13.1-.08-4.84-1.69-7.85-6.46-12.12-9.3-4.11-2.75-9.25-3.57-14.2-3.47-4.95.11-9.83 1.08-14.76 1.64-3.23.35-6.48.53-9.74.52 2.65-12.92 10.34-24.78 22.83-31.22 14.07-7.27 31.15-5.95 44.83 1.45 9.25 5.02 17.33 12.92 21.41 23.06 3.78 9.37 3.81 20.26.66 30.09z" opacity=".2"></path><path fill="#fff" d="M93.26 40.72a25.834 25.834 0 0 0-3.7 3.48c-4.66 5.29-6.87 12.2-9.67 18.67-2.78 6.46-6.66 13.03-13.04 16.01-5.41 2.51-11.73 2.03-17.45 3.71-3.94 1.16-7.43 3.31-10.4 6.09-.92-17.49 7.2-35.59 23.81-44.17 9.46-4.88 20.24-5.89 30.45-3.79z" opacity=".2"></path><path fill="#ff4b3a" d="M124.43 39.52c-2.97-3.99-8.02-6.96-13.04-6.96-4.95 0-10.07 2.97-13.04 6.96-3 3.96-3.96 9.24-3.3 14.16.58 4.13 9.29 16.37 14.1 22.31a2.865 2.865 0 0 0 4.47 0c4.81-5.94 13.52-18.18 14.1-22.31.7-4.91-.29-10.2-3.29-14.16zm-6.76 13.6c-1.25 1.85-3.37 3.04-5.54 3.23-2.08.2-4.26-.5-5.84-1.95-3.6-3.27-2.97-9.77 1.52-11.95 2.24-1.09 4.98-.83 7.16.4 1.49.86 2.77 2.11 3.43 3.76.85 2.09.52 4.63-.73 6.51z"></path><g fill="#fff"><path d="M124.43 39.53c-2.97-4-8.02-6.97-13.03-6.97-4.95 0-10.07 2.97-13.04 6.97-.3.38-.57.79-.83 1.21a22 22 0 0 1 1.55.74c2.06 1.1 3.94 2.49 5.64 4.1.63-1.31 1.66-2.43 3.07-3.12 2.25-1.09 4.98-.82 7.16.39 1.48.86 2.77 2.11 3.43 3.77.86 2.07.53 4.61-.72 6.5-.45.66-1 1.23-1.62 1.68 1.68-.05 3.42-.35 5.07-.02 1.97.41 3.64 1.68 4.85 3.29.97-1.82 1.62-3.36 1.77-4.39.7-4.91-.3-10.2-3.3-14.15z" opacity=".1"></path><path d="M124.43 39.53c-2.97-4-8.02-6.97-13.03-6.97-4.95 0-10.07 2.97-13.04 6.97-3 3.95-3.96 9.24-3.3 14.15.45 3.19 5.76 11.23 10.36 17.46 1.08-1.62 2.65-2.91 4.52-3.49 2.02-.61 4.42-.58 5.88-2.11 2.2-2.31.78-6.72 3.18-8.83 1.4-1.24 3.58-1.16 5.08-2.27 1.74-1.31 2.01-3.76 2.26-5.91.16-1.37.37-2.74.64-4.08-.58-1.77-1.43-3.44-2.55-4.92zm-6.76 13.6c-1.26 1.84-3.37 3.04-5.55 3.23-2.07.2-4.25-.5-5.84-1.95-3.59-3.27-2.97-9.77 1.52-11.95 2.25-1.09 4.98-.82 7.16.39 1.48.86 2.77 2.11 3.43 3.77.86 2.08.53 4.62-.72 6.51z" opacity=".1"></path><path d="M111.4 32.56c-4.95 0-10.07 2.97-13.04 6.97-3 3.95-3.96 9.24-3.3 14.15.21 1.44 1.39 3.86 3.06 6.65 3.19-1.16 6.05-3.27 8.11-5.97-3.55-3.28-2.9-9.74 1.56-11.9 1.14-.54 2.39-.75 3.64-.66.17-.28.36-.54.56-.81 1.54-2.01 3.94-3.21 6.4-3.79 1.11-.27 2.25-.42 3.4-.5-2.9-2.49-6.66-4.14-10.39-4.14z" opacity=".1"></path></g><g fill="#404042"><path d="M28.89 15.51c.73-.72 1.47-1.44 2.23-2.18 1.53-1.53 5.01-3.59 7.02-4.72.88-.5 1.98-.34 2.69.37l1.28 1.28c.72.72.87 1.84.35 2.72-1.16 1.98-3.26 5.39-4.78 6.91-.76.74-1.5 1.47-2.23 2.18zM62.98 52.21c.73-.72 1.47-1.44 2.23-2.18 1.53-1.53 5.01-3.59 7.02-4.72.88-.5 1.98-.34 2.69.37l1.28 1.28c.72.72.87 1.84.35 2.72-1.16 1.98-3.26 5.39-4.78 6.91-.76.74-1.5 1.47-2.23 2.18z"></path></g><path fill="#fd5797" d="M56.56 20.82c-13.25-1.3-26.33-4.34-38.8-9.01-.53-.2-1.11-.09-1.52.29-.94.87-2.11 2.01-2.97 2.87-.64.64-.58 1.69.14 2.25l31.1 24.21z"></path><path d="M13.97 15.67c-.12.12-.15.26-.14.35-.01.13.05.26.14.35l.04.04 30.2 23.51.62-1.05-29.07-22.62-.05-.05a.483.483 0 0 1-.14-.35c0-.08.03-.23.15-.35.7-.7 1.66-1.65 2.52-2.45-.28-.09-.55-.2-.83-.3a.444.444 0 0 0-.49.09c-.94.87-2.13 2.02-2.95 2.83z" opacity=".1"></path><path fill="#fff" d="M13.87 14.37c.51.08 1 .23 1.46.43 2.02.9 3.51 2.62 5.03 4.23 1.51 1.61 3.22 3.2 5.37 3.7 1.87.42 4.04.02 5.56 1.2 1.07.83 1.49 2.23 1.99 3.48.5 1.27 1.31 2.6 2.64 2.89 1.6.35 3.22-.97 4.82-.6 1.64.38 2.35 2.26 3.5 3.49 1.02 1.09 2.46 1.68 3.95 1.93l8.37-14.3a154.047 154.047 0 0 1-38.81-9.01c-.52-.2-1.11-.09-1.52.29-.73.68-1.6 1.52-2.36 2.27z" opacity=".1"></path><path fill="#fff" d="M18.43 12.06c.28.62.61 1.2 1 1.76 2.12 3.11 5.72 5.17 9.49 5.42 2.24.15 4.54-.31 6.71.29 2.11.59 3.84 2.11 5.23 3.82 1.59 1.96 2.98 4.32 5.32 5.24 1.77.71 3.72.44 5.64.33l4.74-8.1a153.696 153.696 0 0 1-38.13-8.76z" opacity=".1"></path><path fill="#fd5797" d="M65.56 29.81c1.3 13.25 4.34 26.33 9.01 38.8.2.53.09 1.11-.29 1.52-.87.94-2.01 2.11-2.87 2.97-.64.64-1.69.58-2.25-.14l-24.21-31.1z"></path><path d="M70.7 72.41c-.12.12-.26.15-.35.14a.46.46 0 0 1-.35-.14l-.04-.04-23.51-30.2 1.05-.62 22.63 29.07.05.05c.09.09.21.14.35.14.08 0 .23-.03.35-.15.7-.7 1.65-1.66 2.45-2.52.09.28.2.55.3.83.07.17.04.36-.09.49-.87.94-2.03 2.12-2.84 2.95z" opacity=".1"></path><g fill="#fff"><path d="M72 72.51c-.08-.51-.23-1-.43-1.46-.9-2.02-2.62-3.51-4.23-5.03-1.61-1.51-3.2-3.22-3.7-5.37-.42-1.87-.02-4.04-1.2-5.56-.83-1.07-2.23-1.49-3.48-1.99-1.27-.5-2.6-1.31-2.89-2.64-.35-1.6.97-3.22.6-4.82-.38-1.64-2.26-2.35-3.49-3.5-1.09-1.02-1.68-2.46-1.93-3.95l14.3-8.37c1.31 13.26 4.34 26.33 9.01 38.81.2.52.09 1.11-.29 1.52-.68.72-1.52 1.59-2.27 2.36z" opacity=".1"></path><path d="M74.31 67.95c-.62-.28-1.2-.61-1.76-1-3.11-2.12-5.17-5.72-5.42-9.49-.15-2.24.31-4.54-.29-6.71-.59-2.11-2.11-3.84-3.82-5.23-1.96-1.59-4.32-2.98-5.24-5.32-.71-1.77-.44-3.72-.33-5.64l8.1-4.74c1.28 13.01 4.24 25.85 8.76 38.13z" opacity=".1"></path></g><path fill="#fd5797" d="M28.01 53.42a84.18 84.18 0 0 1-21.3-4.95.81.81 0 0 0-.84.16c-.51.48-1.16 1.11-1.63 1.57-.35.35-.32.93.07 1.23l17.07 13.29z"></path><path d="M4.63 50.6c-.07.07-.08.14-.08.19 0 .07.03.14.08.19l.02.02 16.58 12.91.34-.58L5.61 50.91l-.03-.03a.273.273 0 0 1-.08-.19.3.3 0 0 1 .08-.19c.38-.38.91-.9 1.38-1.34-.15-.05-.3-.11-.45-.17a.246.246 0 0 0-.27.05c-.51.48-1.16 1.11-1.61 1.56z" opacity=".1"></path><path fill="#fff" d="M4.58 49.88c.28.05.55.12.8.24 1.11.49 1.93 1.44 2.76 2.32s1.77 1.76 2.95 2.03c1.02.23 2.22.01 3.05.66.59.45.82 1.22 1.09 1.91.28.69.72 1.42 1.45 1.59.88.19 1.77-.53 2.64-.33.9.21 1.29 1.24 1.92 1.91.56.6 1.35.92 2.17 1.06l4.6-7.85a84.18 84.18 0 0 1-21.3-4.95.789.789 0 0 0-.83.16c-.41.38-.89.84-1.3 1.25z" opacity=".1"></path><path fill="#fff" d="M7.08 48.62c.15.34.33.66.55.97 1.16 1.71 3.14 2.84 5.21 2.97 1.23.08 2.49-.17 3.68.16 1.16.32 2.11 1.16 2.87 2.1.87 1.08 1.63 2.37 2.92 2.88.97.39 2.04.24 3.09.18l2.6-4.44a85.561 85.561 0 0 1-20.92-4.82z" opacity=".1"></path><path fill="#fd5797" d="M32.95 58.36a84.18 84.18 0 0 0 4.95 21.3c.11.29.05.61-.16.84-.48.51-1.11 1.16-1.57 1.63-.35.35-.93.32-1.23-.07l-13.3-17.08z"></path><path d="M35.78 81.75c-.07.07-.14.08-.19.08-.07 0-.14-.03-.19-.08l-.02-.02-12.92-16.59.58-.34 12.43 15.96.03.03c.05.05.12.08.19.08a.3.3 0 0 0 .19-.08c.38-.38.9-.91 1.34-1.38.05.15.11.3.17.45.04.09.02.2-.05.27-.48.51-1.12 1.16-1.56 1.62z" opacity=".1"></path><g fill="#fff"><path d="M36.49 81.8c-.05-.28-.12-.55-.24-.8-.49-1.11-1.44-1.93-2.32-2.76s-1.76-1.77-2.03-2.95c-.23-1.02-.01-2.22-.66-3.05-.45-.59-1.22-.82-1.91-1.09-.69-.28-1.42-.72-1.59-1.45-.19-.88.53-1.77.33-2.64-.21-.9-1.24-1.29-1.91-1.92-.6-.56-.92-1.35-1.06-2.17l7.85-4.6a84.18 84.18 0 0 0 4.95 21.3c.11.29.05.61-.16.83-.38.4-.84.88-1.25 1.3z" opacity=".1"></path><path d="M37.76 79.3a5.49 5.49 0 0 1-.97-.55c-1.71-1.16-2.84-3.14-2.97-5.21-.08-1.23.17-2.49-.16-3.68-.32-1.16-1.16-2.11-2.1-2.87-1.08-.87-2.37-1.63-2.88-2.92-.39-.97-.24-2.04-.18-3.09l4.44-2.6c.71 7.13 2.34 14.18 4.82 20.92z" opacity=".1"></path></g><path fill="#bcd0e8" d="M37.6 60.96c-2.8 2.81-9.09 6.68-12.75 8.82-1.63.95-3.69.68-5.03-.65l-2.35-2.35a4.15 4.15 0 0 1-.69-4.97c2.09-3.7 5.9-10.13 8.71-12.96 14.5-14.81 26.45-26.71 39.14-39.06 3.25-3.17 7.57-5.15 12.33-5.66l1.02-.11c2.53-.27 4.94 2.14 4.67 4.67l-.08.71c-.52 4.95-2.67 9.4-6.05 12.69-12.61 12.29-24.5 24.12-38.92 38.87z"></path><path fill="#404042" d="M77.98 17.87c-.49-1.26-1.01-2.23-1.6-3.11s-1.23-1.65-1.94-2.37a15.05 15.05 0 0 0-2.37-1.94c-.88-.59-1.85-1.1-3.11-1.6 1.14-.76 2.62-.89 3.97-.59 1.36.3 2.64 1.03 3.63 2.02s1.72 2.26 2.02 3.63c.29 1.34.16 2.82-.6 3.96z"></path><path fill="#fff" d="M76.52 22.1c-.25.25-.52.5-.77.76-1.39.15-2.79.3-4.17.45-3.24.35-6.53.71-9.51 2s-5.67 3.66-6.53 6.8c-.4 1.45-.4 3-.9 4.42-1.32 3.7-5.52 5.32-9.05 7.04-3.95 1.91-7.68 4.58-9.92 8.35-1.77 2.97-2.54 6.48-4.52 9.31-2.52 3.6-6.82 5.7-11.18 6.31-.52.07-1.05.13-1.57.16l-.93-.93a4.152 4.152 0 0 1-.69-4.97c2.09-3.7 5.9-10.13 8.71-12.95 14.49-14.81 26.44-26.7 39.14-39.06 3.25-3.17 7.57-5.15 12.33-5.66l1.02-.11c2.53-.27 4.94 2.14 4.67 4.67l-.08.71c-.53 4.95-2.67 9.4-6.05 12.7z" opacity=".2"></path><path fill="#fff" d="M37.6 60.96c-2.59 2.6-8.2 6.12-11.91 8.33 2.5-2.45 4.67-5.16 6.01-8.37 1.24-2.95 1.72-6.17 3.08-9.06 3.57-7.59 12.18-11.16 18.43-16.74 1.71-1.53 3.28-3.27 4.25-5.34 1.01-2.16 1.32-4.56 1.91-6.86 1.58-6.15 5.09-11.43 9.37-16.19 2.47-1.39 5.26-2.28 8.22-2.6l1.02-.11c2.53-.27 4.94 2.14 4.67 4.67l-.08.71c-.52 4.95-2.67 9.4-6.05 12.69-12.61 12.3-24.5 24.13-38.92 38.87z" opacity=".2"></path><path fill="#fd5797" d="M14.66 71.76c-.77-.77-.78-2.02-.02-2.8l11.78-11.87c.77-.79 2.03-.8 2.82-.03.92.88.8 2.03.03 2.82L17.49 71.75c-.77.79-2.03.8-2.82.03 0 0-.01-.01-.01-.02z"></path><path fill="#fff" d="m61.71 93.78-2.02-.14c.06-.96.07-1.94.02-2.91a1.02 1.02 0 0 0-1.02-.96H43.94c-.27 0-.53.11-.72.31-.2.21-.3.48-.29.77.04.97.03 1.95-.04 2.92l-2.02-.14c.06-.9.07-1.81.03-2.7-.04-.84.27-1.66.85-2.26s1.35-.93 2.18-.93h14.74a3.05 3.05 0 0 1 3.05 2.88c.07 1.06.06 2.12-.01 3.16z"></path><path fill="#d87c3d" d="m72.82 131.4-42.99.21a3.043 3.043 0 0 1-3.06-3.04v-25.85l49.07-.25v25.88a3.018 3.018 0 0 1-3.02 3.05z"></path><path fill="#fff" d="M75.86 110.49v4.47c-1.81.49-3.67.76-5.55.76-1.22 0-2.63-.02-3.4.92-.83 1.01-.43 2.51-.6 3.79-.32 2.42-2.77 4.08-5.18 4.49-2.41.42-4.88-.07-7.33-.14-2.44-.07-5.12.37-6.77 2.18-.72.79-1.2 1.8-2.02 2.47-1.35 1.1-3.31 1.04-4.97.55-1.66-.5-3.21-1.36-4.9-1.73-2.73-.61-5.68.28-7.78 2.11-.37-.5-.58-1.12-.58-1.79V110.6c6.59 1.99 13.18 3.16 19.77 3.53 9.77.56 19.54-.66 29.31-3.64z" opacity=".1"></path><path fill="#fff" d="M46.55 114.13c-.28.46-.6.89-.98 1.29-1.79 1.85-4.59 2.27-7.14 2.12-2.57-.16-5.1-.8-7.66-.67-1.37.07-2.72.39-3.99.9v-7.17c6.59 1.99 13.17 3.16 19.77 3.53z" opacity=".1"></path><path d="M72.9 103.51v8.28c0 8.91-7.22 16.13-16.13 16.13H27.79v.65c0 1.12.91 2.03 2.03 2.03l43-.21c1.11 0 2.02-.92 2.02-2.03V103.5z" opacity=".1"></path><g fill="#404042"><path d="M44.29 98.23c-.05-1.53-.07-3.07-.04-4.6.01-.52-.4-.94-.92-.94h-2.91c-.51 0-.93.41-.93.91-.02 1.56-.01 3.13.04 4.69.02.5.43.9.93.9h2.91c.53 0 .94-.43.92-.96zM63.16 98.23c-.05-1.53-.07-3.07-.04-4.6.01-.52-.4-.94-.92-.94h-2.91c-.51 0-.93.41-.93.91-.02 1.56-.01 3.13.04 4.69.02.5.43.9.93.9h2.91c.53 0 .94-.43.92-.96z"></path></g><path fill="#ef8e49" d="M76.11 109.34c-16.53 5.1-33.05 5.13-49.58.11a2.04 2.04 0 0 1-1.43-1.95V96.99c0-1.12.91-2.03 2.02-2.03l48.37-.1c1.12 0 2.03.91 2.03 2.03v10.51c.01.89-.56 1.68-1.41 1.94z"></path><path fill="#fff" d="M77.53 96.9v1.22c-.59.25-1.17.52-1.73.8-4.23 2.12-8 5.05-12.05 7.51a60.571 60.571 0 0 1-15.81 6.7c-7.13-.27-14.27-1.49-21.41-3.66a2.04 2.04 0 0 1-1.43-1.95V97c0-1.12.9-2.03 2.02-2.03l48.38-.1c1.12 0 2.03.9 2.03 2.03z" opacity=".1"></path><path fill="#fff" d="M77.53 96.9v.22c-3 1.61-6.05 3.13-9.14 4.57-5.3 2.47-11.12 4.72-16.85 3.58-2.62-.52-5.29-1.72-7.84-.94-2.36.72-3.88 2.94-5.71 4.61a13.24 13.24 0 0 1-3.98 2.46 90.37 90.37 0 0 1-7.48-1.93 2.04 2.04 0 0 1-1.43-1.95V97c0-1.12.9-2.03 2.02-2.03l48.38-.1c1.12 0 2.03.9 2.03 2.03z" opacity=".1"></path><path d="M76.52 96.9v10.51a1 1 0 0 1-.71.96c-8.19 2.53-16.49 3.8-24.66 3.8-8.07 0-16.24-1.24-24.32-3.69a1.02 1.02 0 0 1-.71-.97v-.34c7.82 2.3 15.74 3.47 23.57 3.47 6.39 0 12.85-.78 19.29-2.32a7.956 7.956 0 0 0 6.09-7.72v-4.71h.45c.54-.01 1 .45 1 1.01z" opacity=".1"></path><path fill="#fff" d="M54.74 117.72c-.07-2.17-.09-4.33-.06-6.5.01-.73-.57-1.33-1.3-1.33h-4.12c-.72 0-1.31.58-1.32 1.29-.04 2.21-.01 4.42.06 6.62.02.71.61 1.27 1.32 1.27h4.12c.73.01 1.32-.61 1.3-1.35z"></path></g></svg>