<svg xmlns="http://www.w3.org/2000/svg" version="1.1" xmlns:xlink="http://www.w3.org/1999/xlink" width="512" height="512" x="0" y="0" viewBox="0 0 512.53 512.53" style="enable-background:new 0 0 512 512" xml:space="preserve" class=""><g><path fill="#ffb69e" d="m169.608 227.975-35.816-84.481c-4.406-10.392.447-22.388 10.839-26.794 10.394-4.406 22.389.447 26.794 10.839l29.146 68.747 58.271-13.212c11.01-2.498 21.955 4.404 24.452 15.413 2.496 11.008-4.405 21.955-15.413 24.451l-74.937 16.991c-9.689 2.199-19.492-2.887-23.336-11.954z" opacity="1" data-original="#ffb69e" class=""></path><path fill="#5f6e9b" d="M40.108 510.261c-12.225-5.668-17.54-20.173-11.871-32.397L75.77 375.35l-4.297-86.208c-.671-13.458 9.695-24.911 23.153-25.582 13.459-.674 24.911 9.695 25.582 23.153l4.597 92.222a24.398 24.398 0 0 1-2.233 11.478L72.504 498.39c-5.667 12.222-20.171 17.54-32.396 11.871z" opacity="1" data-original="#5f6e9b" class=""></path><path fill="#414b82" d="m168.705 490.249-10.246-117.367-31.25-92.932c-4.295-12.772 2.576-26.607 15.348-30.902 12.775-4.294 26.608 2.577 30.902 15.349l32.178 95.689a24.387 24.387 0 0 1 1.18 5.655l10.499 120.265c1.172 13.423-8.76 25.255-22.184 26.427-13.485 1.176-25.26-8.819-26.427-22.184z" opacity="1" data-original="#414b82" class=""></path><path fill="#64afff" d="m167.075 110.028-53.56-3.581c-16.587-1.109-30.933 11.439-32.042 28.026L71.17 288.569l113.628 7.598 10.303-154.096c1.11-16.588-11.438-30.934-28.026-32.043z" opacity="1" data-original="#64afff" class=""></path><ellipse cx="150.334" cy="48.259" fill="#ffb69e" rx="44.56" ry="44.559" transform="rotate(-68.36 150.276 48.227)" opacity="1" data-original="#ffb69e" class=""></ellipse><path fill="#783c28" d="M133.834 354.108H83.683a7.375 7.375 0 0 1-7.375-7.375v-50.151a7.375 7.375 0 0 1 7.375-7.375h50.151a7.375 7.375 0 0 1 7.375 7.375v50.151a7.375 7.375 0 0 1-7.375 7.375zm-42.777-14.749h35.402v-35.402H91.057z" opacity="1" data-original="#783c28"></path><path fill="#965028" d="M164.13 317.277H53.386c-6.231 0-11.283 5.052-11.283 11.283v76.844c0 6.231 5.052 11.283 11.283 11.283H164.13c6.231 0 11.283-5.052 11.283-11.283V328.56c0-6.232-5.051-11.283-11.283-11.283z" opacity="1" data-original="#965028" class=""></path><path fill="#ffb69e" d="M95.719 309.022a20.233 20.233 0 0 1-6.158-9.18l-25.676-78.569a20.326 20.326 0 0 1 .357-13.635L75.1 179.497l25.308-6.19 13.083 19.652-8.706 22.563 23.427 71.688c3.488 10.673-2.337 22.154-13.01 25.641-6.966 2.278-14.276.587-19.483-3.829z" opacity="1" data-original="#ffb69e" class=""></path><path fill="#4699f2" d="m113.492 192.96 19.135-49.593c4.042-10.476-1.174-22.246-11.65-26.287-10.476-4.042-22.246 1.174-26.287 11.65L75.101 179.5z" opacity="1" data-original="#4699f2" class=""></path><path fill="#f5876e" d="M369.811 214.072c-59.02 0-107.036-48.016-107.036-107.036S310.791 0 369.811 0s107.036 48.016 107.036 107.036-48.016 107.036-107.036 107.036zm0-196.072c-49.095 0-89.036 39.941-89.036 89.036 0 49.094 39.941 89.036 89.036 89.036s89.036-39.941 89.036-89.036S418.906 18 369.811 18z" opacity="1" data-original="#f5876e" class=""></path><path fill="#a5c8cd" d="m424.835 188.344-14.112-72.633h-53.674l40.514 78.685a9.333 9.333 0 0 0 8.297 5.06h9.814c5.868.001 10.28-5.351 9.161-11.112z" opacity="1" data-original="#a5c8cd" class=""></path><path fill="#b4d7dc" d="M472.786 89.912c-2.024-1.763-1.704-4.665-3.936-6.095a54.476 54.476 0 0 0-33.813-8.43l-119.183 9.707-2.681-7.34a17.578 17.578 0 0 0-16.513-11.549h-31.203c-6.94 0-11.663 7.038-9.033 13.46l9.593 23.422a33.237 33.237 0 0 0 28.059 20.53l140.96 11.48a54.47 54.47 0 0 0 40.207-13.224l6.217-5.418c6.362-5.544 6.774-15.148 1.237-21.217-.382-.422-9.911-5.326-9.911-5.326z" opacity="1" data-original="#b4d7dc" class=""></path><path fill="#c8e6eb" d="m411.463 92.166-43.94-85.34a10.87 10.87 0 0 0-9.665-5.895H344.7c-6.835 0-11.975 6.234-10.671 12.944l16.223 83.496a8.027 8.027 0 0 0 7.879 6.496h46.195c6.01 0 9.888-6.359 7.137-11.701z" opacity="1" data-original="#c8e6eb" class=""></path><path fill="#ffffff" d="m481.462 94.028-6.217-5.417a54.524 54.524 0 0 0-6.397-4.791h-13.593a5.709 5.709 0 1 0 0 11.418h27.442c-.385-.42-.794-.825-1.235-1.21z" opacity="1" data-original="#ffffff"></path><path fill="#f5876e" d="M291.536 171.856 435.253 28.14l12.726 12.726-143.717 143.716z" opacity="1" data-original="#f5876e" class=""></path></g></svg>