<svg xmlns="http://www.w3.org/2000/svg" version="1.1" xmlns:xlink="http://www.w3.org/1999/xlink" width="512" height="512" x="0" y="0" viewBox="0 0 512 512" style="enable-background:new 0 0 512 512" xml:space="preserve" class=""><g><path fill="#8aa8bd" d="M207.57 244v258h-47.84V305.504 502h-47.84V244z" opacity="1" data-original="#8aa8bd" class=""></path><path fill="#ff7d97" d="M207.57 244v15.42c0 12.194 9.886 22.08 22.08 22.08 12.194 0 22.08-9.886 22.08-22.08V159.23c0-29.399-23.832-53.231-53.231-53.231h-77.538c-29.399 0-53.231 23.832-53.231 53.231v100.19c0 12.194 9.886 22.08 22.08 22.08 12.194 0 22.08-9.886 22.08-22.08V244z" opacity="1" data-original="#ff7d97" class=""></path><path fill="#f2b394" d="M159.73 10c-22.613 0-40.944 18.331-40.944 40.944v14.113c0 22.612 18.331 40.944 40.944 40.944 22.613 0 40.944-18.331 40.944-40.944V50.944C200.673 28.331 182.342 10 159.73 10z" opacity="1" data-original="#f2b394" class=""></path><path fill="#ffd0c7" d="M388.515 380.426V502h-40V380.426 502h-40V380.426zM348.515 22.53c-19.661 0-35.6 15.939-35.6 35.6V70.4c0 19.661 15.939 35.6 35.6 35.6s35.6-15.938 35.6-35.6V58.129c-.001-19.661-15.939-35.599-35.6-35.599z" opacity="1" data-original="#ffd0c7" class=""></path><path fill="#a0e5a5" d="m302.78 193.748-11.315 68.421c-1.834 11.091-12.445 18.492-23.487 16.382-10.659-2.037-17.748-12.202-15.978-22.908l16.049-97.048C272.833 129.668 300.736 106 330.056 106h18.458-1.04 18.458c29.32 0 57.223 23.668 62.007 52.595l16.049 97.048c1.77 10.706-5.319 20.871-15.978 22.908-11.042 2.11-21.653-5.291-23.487-16.382l-11.315-68.421-2.236-13.445 33.094 200.124H271.927l33.094-200.124z" opacity="1" data-original="#a0e5a5" class=""></path><path d="M429.888 288.373c16.116-3.081 26.644-18.174 23.967-34.362l-16.049-97.047c-4.542-27.468-26.902-50.742-53.517-58.34 6.143-7.77 9.824-17.572 9.824-28.224V58.129c0-25.144-20.456-45.6-45.6-45.6s-45.6 20.456-45.6 45.6V70.4c0 10.546 3.609 20.26 9.643 27.993-23.78 6.466-44.295 25.453-51.979 48.87-5.511-28.644-30.405-50.457-60.451-51.222 6.605-8.592 10.546-19.334 10.546-30.985V50.943C210.673 22.853 187.82 0 159.73 0s-50.944 22.853-50.944 50.943v14.113c0 11.65 3.94 22.393 10.546 30.985-34.114.87-61.602 28.87-61.602 63.19V259.42c0 17.689 14.391 32.08 32.08 32.08a31.89 31.89 0 0 0 12.08-2.369V502c0 5.523 4.477 10 10 10h95.68c5.523 0 10-4.477 10-10v-70.32c0-5.523-4.477-10-10-10s-10 4.477-10 10V492h-27.84V305.504c0-5.523-4.477-10-10-10s-10 4.477-10 10V492h-27.84V254h75.68v87.68c0 5.523 4.477 10 10 10s10-4.477 10-10v-52.549a31.89 31.89 0 0 0 12.08 2.369c8.913 0 16.986-3.656 22.805-9.545 3.791 3.152 8.422 5.419 13.647 6.417 1.904.364 3.813.544 5.708.544 1.746 0 3.475-.171 5.179-.473l-14.928 90.351a9.998 9.998 0 0 0 9.866 11.631h26.588V502c0 5.523 4.478 10 10 10h80c5.522 0 10-4.477 10-10V390.426h25.554a9.998 9.998 0 0 0 9.866-11.63l-14.932-90.351c1.704.302 3.433.473 5.178.473a30.473 30.473 0 0 0 5.707-.545zM322.915 58.129c0-14.116 11.484-25.6 25.6-25.6s25.6 11.484 25.6 25.6V70.4c0 14.116-11.484 25.6-25.6 25.6s-25.6-11.484-25.6-25.6zm-194.129-7.186C128.786 33.881 142.667 20 159.73 20c17.062 0 30.943 13.881 30.943 30.943v14.113C190.673 82.119 176.792 96 159.73 96s-30.944-13.881-30.944-30.943zM229.65 271.5c-6.661 0-12.08-5.419-12.08-12.08v-79.118c0-5.523-4.477-10-10-10s-10 4.477-10 10V234h-75.68v-53.698c0-5.523-4.477-10-10-10s-10 4.477-10 10v79.118c0 6.661-5.419 12.08-12.08 12.08s-12.08-5.419-12.08-12.08V159.231c0-23.837 19.394-43.231 43.231-43.231h77.538c23.837 0 43.231 19.394 43.231 43.231V259.42c0 6.662-5.419 12.08-12.08 12.08zm88.864 118.926h20V492h-20zm60 101.574h-20V390.426h20zm40.022-224.892a9.924 9.924 0 0 1-4.146-6.571l-11.314-68.421a9.991 9.991 0 0 0-11.498-8.235c-5.448.901-9.135 6.049-8.234 11.498l28.937 175.047H283.714l28.932-175.047c.9-5.449-2.786-10.596-8.234-11.498-5.453-.897-10.597 2.787-11.498 8.235L281.6 260.537a9.917 9.917 0 0 1-4.146 6.571 9.918 9.918 0 0 1-7.599 1.62 9.943 9.943 0 0 1-7.988-11.455l16.049-97.047C281.88 136.253 305.757 116 330.056 116h35.877c24.299 0 48.177 20.253 52.141 44.227l16.049 97.047a9.943 9.943 0 0 1-7.988 11.455 9.924 9.924 0 0 1-7.599-1.621z" fill="#000000" opacity="1" data-original="#000000" class=""></path><circle cx="207.57" cy="386.682" r="10" fill="#000000" opacity="1" data-original="#000000" class=""></circle></g></svg>